<?xml version="1.0" encoding="utf-8" standalone="no"?>
<!DOCTYPE svg PUBLIC "-//W3C//DTD SVG 1.1//EN"
  "http://www.w3.org/Graphics/SVG/1.1/DTD/svg11.dtd">
<!-- Created with matplotlib (https://matplotlib.org/) -->
<svg height="252.5pt" version="1.1" viewBox="0 0 284.75 252.5" width="284.75pt" xmlns="http://www.w3.org/2000/svg" xmlns:xlink="http://www.w3.org/1999/xlink">
 <defs>
  <style type="text/css">
*{stroke-linecap:butt;stroke-linejoin:round;}
  </style>
 </defs>
 <g id="figure_1">
  <g id="patch_1">
   <path d="M 0 252.5 
L 284.75 252.5 
L 284.75 0 
L 0 0 
z
" style="fill:#ffffff;"/>
  </g>
  <g id="axes_1">
   <g id="patch_2">
    <path d="M 42.95 212.3 
L 244.55 212.3 
L 244.55 10.7 
L 42.95 10.7 
z
" style="fill:#ffffff;"/>
   </g>
   <g id="LineCollection_1">
    <path clip-path="url(#p69f1c96abf)" d="M 42.95 205.825103 
L 64.283333 205.907747 
L 85.616667 206.155248 
L 106.95 206.566316 
L 128.283333 207.138844 
L 149.616667 207.869954 
L 170.95 208.756068 
L 192.283333 209.792996 
L 213.616667 210.976021 
L 234.95 212.3 
" style="fill:none;stroke:#0000ff;stroke-opacity:0.5;stroke-width:1.5;"/>
   </g>
   <g id="LineCollection_2">
    <path clip-path="url(#p69f1c96abf)" d="M 42.95 191.204027 
L 64.283333 191.301815 
L 85.616667 191.594462 
L 106.95 192.079845 
L 128.283333 192.75451 
L 149.616667 193.613792 
L 170.95 194.651968 
L 192.283333 195.862433 
L 213.616667 197.23789 
L 234.95 198.770539 
" style="fill:none;stroke:#0000ff;stroke-opacity:0.535714;stroke-width:1.5;"/>
   </g>
   <g id="matplotlib.axis_1">
    <g id="xtick_1">
     <g id="line2d_1">
      <defs>
       <path d="M 0 0 
L 0 3.5 
" id="m8b2274b9ea" style="stroke:#000000;stroke-width:0.8;"/>
      </defs>
      <g>
       <use style="stroke:#000000;stroke-width:0.8;" x="42.95" xlink:href="#m8b2274b9ea" y="212.3"/>
      </g>
     </g>
     <g id="text_1">
      <!-- 0 -->
      <defs>
       <path d="M 31.78125 66.40625 
Q 24.171875 66.40625 20.328125 58.90625 
Q 16.5 51.421875 16.5 36.375 
Q 16.5 21.390625 20.328125 13.890625 
Q 24.171875 6.390625 31.78125 6.390625 
Q 39.453125 6.390625 43.28125 13.890625 
Q 47.125 21.390625 47.125 36.375 
Q 47.125 51.421875 43.28125 58.90625 
Q 39.453125 66.40625 31.78125 66.40625 
z
M 31.78125 74.21875 
Q 44.046875 74.21875 50.515625 64.515625 
Q 56.984375 54.828125 56.984375 36.375 
Q 56.984375 17.96875 50.515625 8.265625 
Q 44.046875 -1.421875 31.78125 -1.421875 
Q 19.53125 -1.421875 13.0625 8.265625 
Q 6.59375 17.96875 6.59375 36.375 
Q 6.59375 54.828125 13.0625 64.515625 
Q 19.53125 74.21875 31.78125 74.21875 
z
" id="DejaVuSans-48"/>
      </defs>
      <g transform="translate(39.76875 226.898437)scale(0.1 -0.1)">
       <use xlink:href="#DejaVuSans-48"/>
      </g>
     </g>
    </g>
    <g id="xtick_2">
     <g id="line2d_2">
      <g>
       <use style="stroke:#000000;stroke-width:0.8;" x="106.95" xlink:href="#m8b2274b9ea" y="212.3"/>
      </g>
     </g>
     <g id="text_2">
      <!-- 1 -->
      <defs>
       <path d="M 12.40625 8.296875 
L 28.515625 8.296875 
L 28.515625 63.921875 
L 10.984375 60.40625 
L 10.984375 69.390625 
L 28.421875 72.90625 
L 38.28125 72.90625 
L 38.28125 8.296875 
L 54.390625 8.296875 
L 54.390625 0 
L 12.40625 0 
z
" id="DejaVuSans-49"/>
      </defs>
      <g transform="translate(103.76875 226.898437)scale(0.1 -0.1)">
       <use xlink:href="#DejaVuSans-49"/>
      </g>
     </g>
    </g>
    <g id="xtick_3">
     <g id="line2d_3">
      <g>
       <use style="stroke:#000000;stroke-width:0.8;" x="170.95" xlink:href="#m8b2274b9ea" y="212.3"/>
      </g>
     </g>
     <g id="text_3">
      <!-- 2 -->
      <defs>
       <path d="M 19.1875 8.296875 
L 53.609375 8.296875 
L 53.609375 0 
L 7.328125 0 
L 7.328125 8.296875 
Q 12.9375 14.109375 22.625 23.890625 
Q 32.328125 33.6875 34.8125 36.53125 
Q 39.546875 41.84375 41.421875 45.53125 
Q 43.3125 49.21875 43.3125 52.78125 
Q 43.3125 58.59375 39.234375 62.25 
Q 35.15625 65.921875 28.609375 65.921875 
Q 23.96875 65.921875 18.8125 64.3125 
Q 13.671875 62.703125 7.8125 59.421875 
L 7.8125 69.390625 
Q 13.765625 71.78125 18.9375 73 
Q 24.125 74.21875 28.421875 74.21875 
Q 39.75 74.21875 46.484375 68.546875 
Q 53.21875 62.890625 53.21875 53.421875 
Q 53.21875 48.921875 51.53125 44.890625 
Q 49.859375 40.875 45.40625 35.40625 
Q 44.1875 33.984375 37.640625 27.21875 
Q 31.109375 20.453125 19.1875 8.296875 
z
" id="DejaVuSans-50"/>
      </defs>
      <g transform="translate(167.76875 226.898437)scale(0.1 -0.1)">
       <use xlink:href="#DejaVuSans-50"/>
      </g>
     </g>
    </g>
    <g id="xtick_4">
     <g id="line2d_4">
      <g>
       <use style="stroke:#000000;stroke-width:0.8;" x="234.95" xlink:href="#m8b2274b9ea" y="212.3"/>
      </g>
     </g>
     <g id="text_4">
      <!-- 3 -->
      <defs>
       <path d="M 40.578125 39.3125 
Q 47.65625 37.796875 51.625 33 
Q 55.609375 28.21875 55.609375 21.1875 
Q 55.609375 10.40625 48.1875 4.484375 
Q 40.765625 -1.421875 27.09375 -1.421875 
Q 22.515625 -1.421875 17.65625 -0.515625 
Q 12.796875 0.390625 7.625 2.203125 
L 7.625 11.71875 
Q 11.71875 9.328125 16.59375 8.109375 
Q 21.484375 6.890625 26.8125 6.890625 
Q 36.078125 6.890625 40.9375 10.546875 
Q 45.796875 14.203125 45.796875 21.1875 
Q 45.796875 27.640625 41.28125 31.265625 
Q 36.765625 34.90625 28.71875 34.90625 
L 20.21875 34.90625 
L 20.21875 43.015625 
L 29.109375 43.015625 
Q 36.375 43.015625 40.234375 45.921875 
Q 44.09375 48.828125 44.09375 54.296875 
Q 44.09375 59.90625 40.109375 62.90625 
Q 36.140625 65.921875 28.71875 65.921875 
Q 24.65625 65.921875 20.015625 65.03125 
Q 15.375 64.15625 9.8125 62.3125 
L 9.8125 71.09375 
Q 15.4375 72.65625 20.34375 73.4375 
Q 25.25 74.21875 29.59375 74.21875 
Q 40.828125 74.21875 47.359375 69.109375 
Q 53.90625 64.015625 53.90625 55.328125 
Q 53.90625 49.265625 50.4375 45.09375 
Q 46.96875 40.921875 40.578125 39.3125 
z
" id="DejaVuSans-51"/>
      </defs>
      <g transform="translate(231.76875 226.898437)scale(0.1 -0.1)">
       <use xlink:href="#DejaVuSans-51"/>
      </g>
     </g>
    </g>
    <g id="text_5">
     <!-- $\Delta$ -->
     <defs>
      <path d="M 34.1875 63.1875 
L 14.15625 8.203125 
L 54.25 8.203125 
z
M 0.78125 0 
L 28.609375 72.90625 
L 39.796875 72.90625 
L 67.578125 0 
z
" id="DejaVuSans-916"/>
     </defs>
     <g transform="translate(140.3 240.576562)scale(0.1 -0.1)">
      <use transform="translate(0 0.09375)" xlink:href="#DejaVuSans-916"/>
     </g>
    </g>
   </g>
   <g id="matplotlib.axis_2">
    <g id="ytick_1">
     <g id="line2d_5">
      <defs>
       <path d="M 0 0 
L -3.5 0 
" id="m6f556e6189" style="stroke:#000000;stroke-width:0.8;"/>
      </defs>
      <g>
       <use style="stroke:#000000;stroke-width:0.8;" x="42.95" xlink:href="#m6f556e6189" y="206.285463"/>
      </g>
     </g>
     <g id="text_6">
      <!-- −8 -->
      <defs>
       <path d="M 10.59375 35.5 
L 73.1875 35.5 
L 73.1875 27.203125 
L 10.59375 27.203125 
z
" id="DejaVuSans-8722"/>
       <path d="M 31.78125 34.625 
Q 24.75 34.625 20.71875 30.859375 
Q 16.703125 27.09375 16.703125 20.515625 
Q 16.703125 13.921875 20.71875 10.15625 
Q 24.75 6.390625 31.78125 6.390625 
Q 38.8125 6.390625 42.859375 10.171875 
Q 46.921875 13.96875 46.921875 20.515625 
Q 46.921875 27.09375 42.890625 30.859375 
Q 38.875 34.625 31.78125 34.625 
z
M 21.921875 38.8125 
Q 15.578125 40.375 12.03125 44.71875 
Q 8.5 49.078125 8.5 55.328125 
Q 8.5 64.0625 14.71875 69.140625 
Q 20.953125 74.21875 31.78125 74.21875 
Q 42.671875 74.21875 48.875 69.140625 
Q 55.078125 64.0625 55.078125 55.328125 
Q 55.078125 49.078125 51.53125 44.71875 
Q 48 40.375 41.703125 38.8125 
Q 48.828125 37.15625 52.796875 32.3125 
Q 56.78125 27.484375 56.78125 20.515625 
Q 56.78125 9.90625 50.3125 4.234375 
Q 43.84375 -1.421875 31.78125 -1.421875 
Q 19.734375 -1.421875 13.25 4.234375 
Q 6.78125 9.90625 6.78125 20.515625 
Q 6.78125 27.484375 10.78125 32.3125 
Q 14.796875 37.15625 21.921875 38.8125 
z
M 18.3125 54.390625 
Q 18.3125 48.734375 21.84375 45.5625 
Q 25.390625 42.390625 31.78125 42.390625 
Q 38.140625 42.390625 41.71875 45.5625 
Q 45.3125 48.734375 45.3125 54.390625 
Q 45.3125 60.0625 41.71875 63.234375 
Q 38.140625 66.40625 31.78125 66.40625 
Q 25.390625 66.40625 21.84375 63.234375 
Q 18.3125 60.0625 18.3125 54.390625 
z
" id="DejaVuSans-56"/>
      </defs>
      <g transform="translate(21.207813 210.084682)scale(0.1 -0.1)">
       <use xlink:href="#DejaVuSans-8722"/>
       <use x="83.789062" xlink:href="#DejaVuSans-56"/>
      </g>
     </g>
    </g>
    <g id="ytick_2">
     <g id="line2d_6">
      <g>
       <use style="stroke:#000000;stroke-width:0.8;" x="42.95" xlink:href="#m6f556e6189" y="182.589097"/>
      </g>
     </g>
     <g id="text_7">
      <!-- −6 -->
      <defs>
       <path d="M 33.015625 40.375 
Q 26.375 40.375 22.484375 35.828125 
Q 18.609375 31.296875 18.609375 23.390625 
Q 18.609375 15.53125 22.484375 10.953125 
Q 26.375 6.390625 33.015625 6.390625 
Q 39.65625 6.390625 43.53125 10.953125 
Q 47.40625 15.53125 47.40625 23.390625 
Q 47.40625 31.296875 43.53125 35.828125 
Q 39.65625 40.375 33.015625 40.375 
z
M 52.59375 71.296875 
L 52.59375 62.3125 
Q 48.875 64.0625 45.09375 64.984375 
Q 41.3125 65.921875 37.59375 65.921875 
Q 27.828125 65.921875 22.671875 59.328125 
Q 17.53125 52.734375 16.796875 39.40625 
Q 19.671875 43.65625 24.015625 45.921875 
Q 28.375 48.1875 33.59375 48.1875 
Q 44.578125 48.1875 50.953125 41.515625 
Q 57.328125 34.859375 57.328125 23.390625 
Q 57.328125 12.15625 50.6875 5.359375 
Q 44.046875 -1.421875 33.015625 -1.421875 
Q 20.359375 -1.421875 13.671875 8.265625 
Q 6.984375 17.96875 6.984375 36.375 
Q 6.984375 53.65625 15.1875 63.9375 
Q 23.390625 74.21875 37.203125 74.21875 
Q 40.921875 74.21875 44.703125 73.484375 
Q 48.484375 72.75 52.59375 71.296875 
z
" id="DejaVuSans-54"/>
      </defs>
      <g transform="translate(21.207813 186.388316)scale(0.1 -0.1)">
       <use xlink:href="#DejaVuSans-8722"/>
       <use x="83.789062" xlink:href="#DejaVuSans-54"/>
      </g>
     </g>
    </g>
    <g id="ytick_3">
     <g id="line2d_7">
      <g>
       <use style="stroke:#000000;stroke-width:0.8;" x="42.95" xlink:href="#m6f556e6189" y="158.892731"/>
      </g>
     </g>
     <g id="text_8">
      <!-- −4 -->
      <defs>
       <path d="M 37.796875 64.3125 
L 12.890625 25.390625 
L 37.796875 25.390625 
z
M 35.203125 72.90625 
L 47.609375 72.90625 
L 47.609375 25.390625 
L 58.015625 25.390625 
L 58.015625 17.1875 
L 47.609375 17.1875 
L 47.609375 0 
L 37.796875 0 
L 37.796875 17.1875 
L 4.890625 17.1875 
L 4.890625 26.703125 
z
" id="DejaVuSans-52"/>
      </defs>
      <g transform="translate(21.207813 162.69195)scale(0.1 -0.1)">
       <use xlink:href="#DejaVuSans-8722"/>
       <use x="83.789062" xlink:href="#DejaVuSans-52"/>
      </g>
     </g>
    </g>
    <g id="ytick_4">
     <g id="line2d_8">
      <g>
       <use style="stroke:#000000;stroke-width:0.8;" x="42.95" xlink:href="#m6f556e6189" y="135.196366"/>
      </g>
     </g>
     <g id="text_9">
      <!-- −2 -->
      <g transform="translate(21.207813 138.995584)scale(0.1 -0.1)">
       <use xlink:href="#DejaVuSans-8722"/>
       <use x="83.789062" xlink:href="#DejaVuSans-50"/>
      </g>
     </g>
    </g>
    <g id="ytick_5">
     <g id="line2d_9">
      <g>
       <use style="stroke:#000000;stroke-width:0.8;" x="42.95" xlink:href="#m6f556e6189" y="111.5"/>
      </g>
     </g>
     <g id="text_10">
      <!-- 0 -->
      <g transform="translate(29.5875 115.299219)scale(0.1 -0.1)">
       <use xlink:href="#DejaVuSans-48"/>
      </g>
     </g>
    </g>
    <g id="ytick_6">
     <g id="line2d_10">
      <g>
       <use style="stroke:#000000;stroke-width:0.8;" x="42.95" xlink:href="#m6f556e6189" y="87.803634"/>
      </g>
     </g>
     <g id="text_11">
      <!-- 2 -->
      <g transform="translate(29.5875 91.602853)scale(0.1 -0.1)">
       <use xlink:href="#DejaVuSans-50"/>
      </g>
     </g>
    </g>
    <g id="ytick_7">
     <g id="line2d_11">
      <g>
       <use style="stroke:#000000;stroke-width:0.8;" x="42.95" xlink:href="#m6f556e6189" y="64.107269"/>
      </g>
     </g>
     <g id="text_12">
      <!-- 4 -->
      <g transform="translate(29.5875 67.906487)scale(0.1 -0.1)">
       <use xlink:href="#DejaVuSans-52"/>
      </g>
     </g>
    </g>
    <g id="ytick_8">
     <g id="line2d_12">
      <g>
       <use style="stroke:#000000;stroke-width:0.8;" x="42.95" xlink:href="#m6f556e6189" y="40.410903"/>
      </g>
     </g>
     <g id="text_13">
      <!-- 6 -->
      <g transform="translate(29.5875 44.210122)scale(0.1 -0.1)">
       <use xlink:href="#DejaVuSans-54"/>
      </g>
     </g>
    </g>
    <g id="ytick_9">
     <g id="line2d_13">
      <g>
       <use style="stroke:#000000;stroke-width:0.8;" x="42.95" xlink:href="#m6f556e6189" y="16.714537"/>
      </g>
     </g>
     <g id="text_14">
      <!-- 8 -->
      <g transform="translate(29.5875 20.513756)scale(0.1 -0.1)">
       <use xlink:href="#DejaVuSans-56"/>
      </g>
     </g>
    </g>
    <g id="text_15">
     <!-- $\epsilon$ -->
     <defs>
      <path d="M 19.734375 29.5 
Q 14.453125 30.671875 12.15625 33.84375 
Q 10.453125 36.078125 10.453125 39.109375 
Q 10.453125 47.40625 18.359375 52.25 
Q 24.609375 56.0625 34.1875 56.0625 
Q 37.890625 56.0625 41.9375 55.46875 
Q 46 54.890625 50.53125 53.71875 
L 48.96875 45.5625 
Q 44.484375 46.96875 40.71875 47.609375 
Q 36.859375 48.25 33.40625 48.25 
Q 27.59375 48.25 23.78125 46 
Q 19.1875 43.3125 19.1875 39.40625 
Q 19.1875 36.8125 21.578125 35.015625 
Q 24.421875 32.859375 30.078125 32.859375 
L 37.640625 32.859375 
L 36.234375 25.4375 
L 29 25.4375 
Q 22.265625 25.4375 18.3125 22.953125 
Q 12.9375 19.578125 12.9375 14.3125 
Q 12.9375 10.984375 15.828125 8.796875 
Q 19.4375 6.0625 26.8125 6.0625 
Q 31.34375 6.0625 35.6875 6.9375 
Q 40.046875 7.859375 43.84375 9.671875 
L 42.1875 1.3125 
Q 37.546875 -0.046875 33.296875 -0.734375 
Q 29.046875 -1.421875 25.140625 -1.421875 
Q 13.53125 -1.421875 8.0625 3.03125 
Q 3.90625 6.453125 3.90625 12.203125 
Q 3.90625 19.96875 9.375 24.75 
Q 13.421875 28.328125 19.734375 29.5 
z
" id="DejaVuSans-Oblique-949"/>
     </defs>
     <g transform="translate(15.128125 114.25)rotate(-90)scale(0.1 -0.1)">
      <use transform="translate(0 0.9375)" xlink:href="#DejaVuSans-Oblique-949"/>
     </g>
    </g>
   </g>
   <g id="LineCollection_3">
    <path clip-path="url(#p69f1c96abf)" d="M 42.95 180.493161 
L 64.283333 180.606107 
L 85.616667 180.943842 
L 106.95 181.503112 
L 128.283333 182.278667 
L 149.616667 183.263495 
L 170.95 184.44912 
L 192.283333 185.825933 
L 213.616667 187.38353 
L 234.95 189.111025 
" style="fill:none;stroke:#0000ff;stroke-opacity:0.571429;stroke-width:1.5;"/>
   </g>
   <g id="patch_3">
    <path d="M 42.95 212.3 
L 42.95 10.7 
" style="fill:none;stroke:#000000;stroke-linecap:square;stroke-linejoin:miter;stroke-width:0.8;"/>
   </g>
   <g id="patch_4">
    <path d="M 42.95 212.3 
L 244.55 212.3 
" style="fill:none;stroke:#000000;stroke-linecap:square;stroke-linejoin:miter;stroke-width:0.8;"/>
   </g>
   <g id="LineCollection_4">
    <path clip-path="url(#p69f1c96abf)" d="M 42.95 170.965541 
L 64.283333 171.096545 
L 85.616667 171.487844 
L 106.95 172.134396 
L 128.283333 173.028156 
L 149.616667 174.158546 
L 170.95 175.513032 
L 192.283333 177.077729 
L 213.616667 178.837985 
L 234.95 180.778896 
" style="fill:none;stroke:#0000ff;stroke-opacity:0.607143;stroke-width:1.5;"/>
   </g>
   <g id="text_16">
    <!-- t = 1 -->
    <defs>
     <path d="M 18.3125 70.21875 
L 18.3125 54.6875 
L 36.8125 54.6875 
L 36.8125 47.703125 
L 18.3125 47.703125 
L 18.3125 18.015625 
Q 18.3125 11.328125 20.140625 9.421875 
Q 21.96875 7.515625 27.59375 7.515625 
L 36.8125 7.515625 
L 36.8125 0 
L 27.59375 0 
Q 17.1875 0 13.234375 3.875 
Q 9.28125 7.765625 9.28125 18.015625 
L 9.28125 47.703125 
L 2.6875 47.703125 
L 2.6875 54.6875 
L 9.28125 54.6875 
L 9.28125 70.21875 
z
" id="DejaVuSans-116"/>
     <path id="DejaVuSans-32"/>
     <path d="M 10.59375 45.40625 
L 73.1875 45.40625 
L 73.1875 37.203125 
L 10.59375 37.203125 
z
M 10.59375 25.484375 
L 73.1875 25.484375 
L 73.1875 17.1875 
L 10.59375 17.1875 
z
" id="DejaVuSans-61"/>
    </defs>
    <g transform="translate(244.55 81.217813)scale(0.12 -0.12)">
     <use xlink:href="#DejaVuSans-116"/>
     <use x="39.208984" xlink:href="#DejaVuSans-32"/>
     <use x="70.996094" xlink:href="#DejaVuSans-61"/>
     <use x="154.785156" xlink:href="#DejaVuSans-32"/>
     <use x="186.572266" xlink:href="#DejaVuSans-49"/>
    </g>
    <!-- μ = 0 -->
    <defs>
     <path d="M 8.5 -20.796875 
L 8.5 54.6875 
L 17.484375 54.6875 
L 17.484375 20.703125 
Q 17.484375 13.625 20.84375 10 
Q 24.21875 6.390625 30.8125 6.390625 
Q 38.03125 6.390625 41.671875 10.484375 
Q 45.3125 14.59375 45.3125 22.796875 
L 45.3125 54.6875 
L 54.296875 54.6875 
L 54.296875 12.59375 
Q 54.296875 9.671875 55.140625 8.28125 
Q 56 6.890625 57.8125 6.890625 
Q 58.25 6.890625 59.03125 7.15625 
Q 59.8125 7.421875 61.1875 8.015625 
L 61.1875 0.78125 
Q 59.1875 -0.34375 57.390625 -0.875 
Q 55.609375 -1.421875 53.90625 -1.421875 
Q 50.53125 -1.421875 48.53125 0.484375 
Q 46.53125 2.390625 45.796875 6.296875 
Q 43.359375 2.4375 39.8125 0.5 
Q 36.28125 -1.421875 31.5 -1.421875 
Q 26.515625 -1.421875 23.015625 0.484375 
Q 19.53125 2.390625 17.484375 6.203125 
L 17.484375 -20.796875 
z
" id="DejaVuSans-956"/>
    </defs>
    <g transform="translate(244.55 94.655188)scale(0.12 -0.12)">
     <use xlink:href="#DejaVuSans-956"/>
     <use x="63.623047" xlink:href="#DejaVuSans-32"/>
     <use x="95.410156" xlink:href="#DejaVuSans-61"/>
     <use x="179.199219" xlink:href="#DejaVuSans-32"/>
     <use x="210.986328" xlink:href="#DejaVuSans-48"/>
    </g>
    <!-- J = 0 -->
    <defs>
     <path d="M 9.8125 72.90625 
L 19.671875 72.90625 
L 19.671875 5.078125 
Q 19.671875 -8.109375 14.671875 -14.0625 
Q 9.671875 -20.015625 -1.421875 -20.015625 
L -5.171875 -20.015625 
L -5.171875 -11.71875 
L -2.09375 -11.71875 
Q 4.4375 -11.71875 7.125 -8.046875 
Q 9.8125 -4.390625 9.8125 5.078125 
z
" id="DejaVuSans-74"/>
    </defs>
    <g transform="translate(244.55 108.092563)scale(0.12 -0.12)">
     <use xlink:href="#DejaVuSans-74"/>
     <use x="29.492188" xlink:href="#DejaVuSans-32"/>
     <use x="61.279297" xlink:href="#DejaVuSans-61"/>
     <use x="145.068359" xlink:href="#DejaVuSans-32"/>
     <use x="176.855469" xlink:href="#DejaVuSans-48"/>
    </g>
    <!-- q = 1 -->
    <defs>
     <path d="M 14.796875 27.296875 
Q 14.796875 17.390625 18.875 11.75 
Q 22.953125 6.109375 30.078125 6.109375 
Q 37.203125 6.109375 41.296875 11.75 
Q 45.40625 17.390625 45.40625 27.296875 
Q 45.40625 37.203125 41.296875 42.84375 
Q 37.203125 48.484375 30.078125 48.484375 
Q 22.953125 48.484375 18.875 42.84375 
Q 14.796875 37.203125 14.796875 27.296875 
z
M 45.40625 8.203125 
Q 42.578125 3.328125 38.25 0.953125 
Q 33.9375 -1.421875 27.875 -1.421875 
Q 17.96875 -1.421875 11.734375 6.484375 
Q 5.515625 14.40625 5.515625 27.296875 
Q 5.515625 40.1875 11.734375 48.09375 
Q 17.96875 56 27.875 56 
Q 33.9375 56 38.25 53.625 
Q 42.578125 51.265625 45.40625 46.390625 
L 45.40625 54.6875 
L 54.390625 54.6875 
L 54.390625 -20.796875 
L 45.40625 -20.796875 
z
" id="DejaVuSans-113"/>
    </defs>
    <g transform="translate(244.55 121.529938)scale(0.12 -0.12)">
     <use xlink:href="#DejaVuSans-113"/>
     <use x="63.476562" xlink:href="#DejaVuSans-32"/>
     <use x="95.263672" xlink:href="#DejaVuSans-61"/>
     <use x="179.052734" xlink:href="#DejaVuSans-32"/>
     <use x="210.839844" xlink:href="#DejaVuSans-49"/>
    </g>
    <!-- p = 1 -->
    <defs>
     <path d="M 18.109375 8.203125 
L 18.109375 -20.796875 
L 9.078125 -20.796875 
L 9.078125 54.6875 
L 18.109375 54.6875 
L 18.109375 46.390625 
Q 20.953125 51.265625 25.265625 53.625 
Q 29.59375 56 35.59375 56 
Q 45.5625 56 51.78125 48.09375 
Q 58.015625 40.1875 58.015625 27.296875 
Q 58.015625 14.40625 51.78125 6.484375 
Q 45.5625 -1.421875 35.59375 -1.421875 
Q 29.59375 -1.421875 25.265625 0.953125 
Q 20.953125 3.328125 18.109375 8.203125 
z
M 48.6875 27.296875 
Q 48.6875 37.203125 44.609375 42.84375 
Q 40.53125 48.484375 33.40625 48.484375 
Q 26.265625 48.484375 22.1875 42.84375 
Q 18.109375 37.203125 18.109375 27.296875 
Q 18.109375 17.390625 22.1875 11.75 
Q 26.265625 6.109375 33.40625 6.109375 
Q 40.53125 6.109375 44.609375 11.75 
Q 48.6875 17.390625 48.6875 27.296875 
z
" id="DejaVuSans-112"/>
    </defs>
    <g transform="translate(244.55 134.967313)scale(0.12 -0.12)">
     <use xlink:href="#DejaVuSans-112"/>
     <use x="63.476562" xlink:href="#DejaVuSans-32"/>
     <use x="95.263672" xlink:href="#DejaVuSans-61"/>
     <use x="179.052734" xlink:href="#DejaVuSans-32"/>
     <use x="210.839844" xlink:href="#DejaVuSans-49"/>
    </g>
    <!--  -->
    <g transform="translate(244.55 148.404688)scale(0.12 -0.12)"/>
   </g>
   <g id="LineCollection_5">
    <path clip-path="url(#p69f1c96abf)" d="M 42.95 163.829565 
L 64.283333 163.978387 
L 85.616667 164.422341 
L 106.95 165.154103 
L 128.283333 166.162115 
L 149.616667 167.431442 
L 170.95 168.944766 
L 192.283333 170.683371 
L 213.616667 172.628039 
L 234.95 174.759768 
" style="fill:none;stroke:#0000ff;stroke-opacity:0.642857;stroke-width:1.5;"/>
   </g>
   <g id="LineCollection_6">
    <path clip-path="url(#p69f1c96abf)" d="M 42.95 158.892731 
L 64.283333 159.057005 
L 85.616667 159.546455 
L 106.95 160.351309 
L 128.283333 161.456325 
L 149.616667 162.842126 
L 170.95 164.486685 
L 192.283333 166.366739 
L 213.616667 168.458974 
L 234.95 170.740914 
" style="fill:none;stroke:#0000ff;stroke-opacity:0.678571;stroke-width:1.5;"/>
   </g>
   <g id="LineCollection_7">
    <path clip-path="url(#p69f1c96abf)" d="M 42.95 154.136193 
L 64.283333 154.318718 
L 85.616667 154.861686 
L 106.95 155.751829 
L 128.283333 156.968763 
L 149.616667 158.487103 
L 170.95 160.278711 
L 192.283333 162.314692 
L 213.616667 164.566927 
L 234.95 167.009097 
" style="fill:none;stroke:#0000ff;stroke-opacity:0.714286;stroke-width:1.5;"/>
   </g>
   <g id="LineCollection_8">
    <path clip-path="url(#p69f1c96abf)" d="M 42.95 146.870181 
L 64.283333 147.08999 
L 85.616667 147.741421 
L 106.95 148.801865 
L 128.283333 150.237748 
L 149.616667 152.009167 
L 170.95 154.074258 
L 192.283333 156.392513 
L 213.616667 158.926822 
L 234.95 161.644438 
" style="fill:none;stroke:#0000ff;stroke-opacity:0.75;stroke-width:1.5;"/>
   </g>
   <g id="LineCollection_9">
    <path clip-path="url(#p69f1c96abf)" d="M 42.95 138.338614 
L 64.283333 138.627642 
L 85.616667 139.476813 
L 106.95 140.83753 
L 128.283333 142.642811 
L 149.616667 144.820476 
L 170.95 147.302639 
L 192.283333 150.030498 
L 213.616667 152.955579 
L 234.95 156.039041 
" style="fill:none;stroke:#0000ff;stroke-opacity:0.785714;stroke-width:1.5;"/>
   </g>
   <g id="LineCollection_10">
    <path clip-path="url(#p69f1c96abf)" d="M 42.95 126.836301 
L 64.283333 127.336661 
L 85.616667 128.750884 
L 106.95 130.879927 
L 128.283333 133.517392 
L 149.616667 136.5029 
L 170.95 139.726227 
L 192.283333 143.114714 
L 213.616667 146.620591 
L 234.95 150.211976 
" style="fill:none;stroke:#0000ff;stroke-opacity:0.821429;stroke-width:1.5;"/>
   </g>
   <g id="LineCollection_11">
    <path clip-path="url(#p69f1c96abf)" d="M 42.95 112.664197 
L 64.283333 115.617411 
L 85.616667 119.484123 
L 106.95 123.405242 
L 128.283333 127.340417 
L 149.616667 131.28126 
L 170.95 135.224947 
L 192.283333 139.170262 
L 213.616667 143.116596 
L 234.95 147.063609 
" style="fill:none;stroke:#0000ff;stroke-opacity:0.857143;stroke-width:1.5;"/>
   </g>
   <g id="LineCollection_12">
    <path clip-path="url(#p69f1c96abf)" d="M 42.95 112.664197 
L 64.283333 115.617411 
L 85.616667 119.484123 
L 106.95 123.405242 
L 128.283333 127.340417 
L 149.616667 131.28126 
L 170.95 135.224947 
L 192.283333 139.170262 
L 213.616667 143.116596 
L 234.95 147.063609 
" style="fill:none;stroke:#0000ff;stroke-opacity:0.892857;stroke-width:1.5;"/>
   </g>
   <g id="LineCollection_13">
    <path clip-path="url(#p69f1c96abf)" d="M 42.95 111.96036 
L 64.283333 115.476135 
L 85.616667 119.412193 
L 106.95 123.357123 
L 128.283333 127.304283 
L 149.616667 131.252337 
L 170.95 135.200837 
L 192.283333 139.149593 
L 213.616667 143.098508 
L 234.95 147.04753 
" style="fill:none;stroke:#0000ff;stroke-opacity:0.928571;stroke-width:1.5;"/>
   </g>
   <g id="LineCollection_14">
    <path clip-path="url(#p69f1c96abf)" d="M 42.95 111.96036 
L 64.283333 115.476135 
L 85.616667 119.412193 
L 106.95 123.357123 
L 128.283333 127.304283 
L 149.616667 131.252337 
L 170.95 135.200837 
L 192.283333 139.149593 
L 213.616667 143.098508 
L 234.95 147.04753 
" style="fill:none;stroke:#0000ff;stroke-opacity:0.964286;stroke-width:1.5;"/>
   </g>
   <g id="LineCollection_15">
    <path clip-path="url(#p69f1c96abf)" d="M 42.95 111.03964 
L 64.283333 107.523865 
L 85.616667 103.587807 
L 106.95 99.642877 
L 128.283333 95.695717 
L 149.616667 91.747663 
L 170.95 87.799163 
L 192.283333 83.850407 
L 213.616667 79.901492 
L 234.95 75.95247 
" style="fill:none;stroke:#ff0000;stroke-width:1.5;"/>
   </g>
   <g id="LineCollection_16">
    <path clip-path="url(#p69f1c96abf)" d="M 42.95 111.03964 
L 64.283333 107.523865 
L 85.616667 103.587807 
L 106.95 99.642877 
L 128.283333 95.695717 
L 149.616667 91.747663 
L 170.95 87.799163 
L 192.283333 83.850407 
L 213.616667 79.901492 
L 234.95 75.95247 
" style="fill:none;stroke:#ff0000;stroke-opacity:0.964286;stroke-width:1.5;"/>
   </g>
   <g id="LineCollection_17">
    <path clip-path="url(#p69f1c96abf)" d="M 42.95 110.335803 
L 64.283333 107.382589 
L 85.616667 103.515877 
L 106.95 99.594758 
L 128.283333 95.659583 
L 149.616667 91.71874 
L 170.95 87.775053 
L 192.283333 83.829738 
L 213.616667 79.883404 
L 234.95 75.936391 
" style="fill:none;stroke:#ff0000;stroke-opacity:0.928571;stroke-width:1.5;"/>
   </g>
   <g id="LineCollection_18">
    <path clip-path="url(#p69f1c96abf)" d="M 42.95 110.335803 
L 64.283333 107.382589 
L 85.616667 103.515877 
L 106.95 99.594758 
L 128.283333 95.659583 
L 149.616667 91.71874 
L 170.95 87.775053 
L 192.283333 83.829738 
L 213.616667 79.883404 
L 234.95 75.936391 
" style="fill:none;stroke:#ff0000;stroke-opacity:0.892857;stroke-width:1.5;"/>
   </g>
   <g id="LineCollection_19">
    <path clip-path="url(#p69f1c96abf)" d="M 42.95 97.996288 
L 64.283333 97.430602 
L 85.616667 95.855797 
L 106.95 93.535322 
L 128.283333 90.717467 
L 149.616667 87.577351 
L 170.95 84.226057 
L 192.283333 80.732513 
L 213.616667 77.140081 
L 234.95 73.476781 
" style="fill:none;stroke:#ff0000;stroke-opacity:0.857143;stroke-width:1.5;"/>
   </g>
   <g id="LineCollection_20">
    <path clip-path="url(#p69f1c96abf)" d="M 42.95 86.247199 
L 64.283333 85.940234 
L 85.616667 85.040695 
L 106.95 83.605854 
L 128.283333 81.712966 
L 149.616667 79.443069 
L 170.95 76.87022 
L 192.283333 74.056816 
L 213.616667 71.053026 
L 234.95 67.898178 
" style="fill:none;stroke:#ff0000;stroke-opacity:0.821429;stroke-width:1.5;"/>
   </g>
   <g id="LineCollection_21">
    <path clip-path="url(#p69f1c96abf)" d="M 42.95 76.576343 
L 64.283333 76.353741 
L 85.616667 75.694237 
L 106.95 74.621263 
L 128.283333 73.169526 
L 149.616667 71.380121 
L 170.95 69.295977 
L 192.283333 66.958448 
L 213.616667 64.405249 
L 234.95 61.66952 
" style="fill:none;stroke:#ff0000;stroke-opacity:0.785714;stroke-width:1.5;"/>
   </g>
   <g id="LineCollection_22">
    <path clip-path="url(#p69f1c96abf)" d="M 42.95 69.276489 
L 64.283333 69.092187 
L 85.616667 68.544025 
L 106.95 67.645646 
L 128.283333 66.417982 
L 149.616667 64.887043 
L 170.95 63.081588 
L 192.283333 61.031069 
L 213.616667 58.764066 
L 234.95 56.307248 
" style="fill:none;stroke:#ff0000;stroke-opacity:0.75;stroke-width:1.5;"/>
   </g>
   <g id="LineCollection_23">
    <path clip-path="url(#p69f1c96abf)" d="M 42.95 64.107269 
L 64.283333 63.942995 
L 85.616667 63.453545 
L 106.95 62.648691 
L 128.283333 61.543675 
L 149.616667 60.157874 
L 170.95 58.513315 
L 192.283333 56.633261 
L 213.616667 54.541026 
L 234.95 52.259086 
" style="fill:none;stroke:#ff0000;stroke-opacity:0.714286;stroke-width:1.5;"/>
   </g>
   <g id="LineCollection_24">
    <path clip-path="url(#p69f1c96abf)" d="M 42.95 59.35073 
L 64.283333 59.201395 
L 85.616667 58.755927 
L 106.95 58.021726 
L 128.283333 57.010461 
L 149.616667 55.737205 
L 170.95 54.219426 
L 192.283333 52.475984 
L 213.616667 50.526234 
L 234.95 48.389293 
" style="fill:none;stroke:#ff0000;stroke-opacity:0.678571;stroke-width:1.5;"/>
   </g>
   <g id="LineCollection_25">
    <path clip-path="url(#p69f1c96abf)" d="M 42.95 52.084718 
L 64.283333 51.953603 
L 85.616667 51.561977 
L 106.95 50.914893 
L 128.283333 50.020417 
L 149.616667 48.889149 
L 170.95 47.533654 
L 192.283333 45.967842 
L 213.616667 44.206393 
L 234.95 42.264239 
" style="fill:none;stroke:#ff0000;stroke-opacity:0.642857;stroke-width:1.5;"/>
   </g>
   <g id="LineCollection_26">
    <path clip-path="url(#p69f1c96abf)" d="M 42.95 43.553151 
L 64.283333 43.438469 
L 85.616667 43.095577 
L 106.95 42.527878 
L 128.283333 41.74086 
L 149.616667 40.741841 
L 170.95 39.53965 
L 192.283333 38.144276 
L 213.616667 36.56651 
L 234.95 34.817609 
" style="fill:none;stroke:#ff0000;stroke-opacity:0.607143;stroke-width:1.5;"/>
   </g>
   <g id="LineCollection_27">
    <path clip-path="url(#p69f1c96abf)" d="M 42.95 31.844016 
L 64.283333 31.746169 
L 85.616667 31.453347 
L 106.95 30.967676 
L 128.283333 30.292616 
L 149.616667 29.43284 
L 170.95 28.394082 
L 192.283333 27.182956 
L 213.616667 25.80677 
L 234.95 24.273337 
" style="fill:none;stroke:#ff0000;stroke-opacity:0.571429;stroke-width:1.5;"/>
   </g>
   <g id="LineCollection_28">
    <path clip-path="url(#p69f1c96abf)" d="M 42.95 17.174897 
L 64.283333 17.092253 
L 85.616667 16.844752 
L 106.95 16.433684 
L 128.283333 15.861156 
L 149.616667 15.130046 
L 170.95 14.243932 
L 192.283333 13.207004 
L 213.616667 12.023979 
L 234.95 10.7 
" style="fill:none;stroke:#ff0000;stroke-opacity:0.535714;stroke-width:1.5;"/>
   </g>
  </g>
 </g>
 <defs>
  <clipPath id="p69f1c96abf">
   <rect height="201.6" width="201.6" x="42.95" y="10.7"/>
  </clipPath>
 </defs>
</svg>
