<?xml version="1.0" encoding="utf-8" standalone="no"?>
<!DOCTYPE svg PUBLIC "-//W3C//DTD SVG 1.1//EN"
  "http://www.w3.org/Graphics/SVG/1.1/DTD/svg11.dtd">
<!-- Created with matplotlib (https://matplotlib.org/) -->
<svg height="250.5pt" version="1.1" viewBox="0 0 292.658203 250.5" width="292.658203pt" xmlns="http://www.w3.org/2000/svg" xmlns:xlink="http://www.w3.org/1999/xlink">
 <defs>
  <style type="text/css">
*{stroke-linecap:butt;stroke-linejoin:round;}
  </style>
 </defs>
 <g id="figure_1">
  <g id="patch_1">
   <path d="M 0 250.5 
L 292.658203 250.5 
L 292.658203 0 
L 0 0 
z
" style="fill:#ffffff;"/>
  </g>
  <g id="axes_1">
   <g id="patch_2">
    <path d="M 49.2 212.3 
L 250.8 212.3 
L 250.8 10.7 
L 49.2 10.7 
z
" style="fill:#ffffff;"/>
   </g>
   <g id="LineCollection_1">
    <path clip-path="url(#p56a76997f6)" d="M 49.2 111.5 
L 70.533333 122.7 
L 91.866667 133.9 
L 113.2 145.1 
L 134.533333 156.3 
L 155.866667 167.5 
L 177.2 178.7 
L 198.533333 189.9 
L 219.866667 201.1 
L 241.2 212.3 
" style="fill:none;stroke:#0000ff;stroke-opacity:0.5;stroke-width:1.5;"/>
   </g>
   <g id="LineCollection_2">
    <path clip-path="url(#p56a76997f6)" d="M 49.2 111.5 
L 70.533333 120.963919 
L 91.866667 130.427837 
L 113.2 139.891756 
L 134.533333 149.355675 
L 155.866667 158.819594 
L 177.2 168.283512 
L 198.533333 177.747431 
L 219.866667 187.21135 
L 241.2 196.675268 
" style="fill:none;stroke:#0000ff;stroke-opacity:0.535714;stroke-width:1.5;"/>
   </g>
   <g id="matplotlib.axis_1">
    <g id="xtick_1">
     <g id="line2d_1">
      <defs>
       <path d="M 0 0 
L 0 3.5 
" id="m4fd08a3a9b" style="stroke:#000000;stroke-width:0.8;"/>
      </defs>
      <g>
       <use style="stroke:#000000;stroke-width:0.8;" x="49.2" xlink:href="#m4fd08a3a9b" y="212.3"/>
      </g>
     </g>
     <g id="text_1">
      <!-- 0 -->
      <defs>
       <path d="M 31.78125 66.40625 
Q 24.171875 66.40625 20.328125 58.90625 
Q 16.5 51.421875 16.5 36.375 
Q 16.5 21.390625 20.328125 13.890625 
Q 24.171875 6.390625 31.78125 6.390625 
Q 39.453125 6.390625 43.28125 13.890625 
Q 47.125 21.390625 47.125 36.375 
Q 47.125 51.421875 43.28125 58.90625 
Q 39.453125 66.40625 31.78125 66.40625 
z
M 31.78125 74.21875 
Q 44.046875 74.21875 50.515625 64.515625 
Q 56.984375 54.828125 56.984375 36.375 
Q 56.984375 17.96875 50.515625 8.265625 
Q 44.046875 -1.421875 31.78125 -1.421875 
Q 19.53125 -1.421875 13.0625 8.265625 
Q 6.59375 17.96875 6.59375 36.375 
Q 6.59375 54.828125 13.0625 64.515625 
Q 19.53125 74.21875 31.78125 74.21875 
z
" id="DejaVuSans-48"/>
      </defs>
      <g transform="translate(46.01875 226.898437)scale(0.1 -0.1)">
       <use xlink:href="#DejaVuSans-48"/>
      </g>
     </g>
    </g>
    <g id="xtick_2">
     <g id="line2d_2">
      <g>
       <use style="stroke:#000000;stroke-width:0.8;" x="113.2" xlink:href="#m4fd08a3a9b" y="212.3"/>
      </g>
     </g>
     <g id="text_2">
      <!-- 1 -->
      <defs>
       <path d="M 12.40625 8.296875 
L 28.515625 8.296875 
L 28.515625 63.921875 
L 10.984375 60.40625 
L 10.984375 69.390625 
L 28.421875 72.90625 
L 38.28125 72.90625 
L 38.28125 8.296875 
L 54.390625 8.296875 
L 54.390625 0 
L 12.40625 0 
z
" id="DejaVuSans-49"/>
      </defs>
      <g transform="translate(110.01875 226.898437)scale(0.1 -0.1)">
       <use xlink:href="#DejaVuSans-49"/>
      </g>
     </g>
    </g>
    <g id="xtick_3">
     <g id="line2d_3">
      <g>
       <use style="stroke:#000000;stroke-width:0.8;" x="177.2" xlink:href="#m4fd08a3a9b" y="212.3"/>
      </g>
     </g>
     <g id="text_3">
      <!-- 2 -->
      <defs>
       <path d="M 19.1875 8.296875 
L 53.609375 8.296875 
L 53.609375 0 
L 7.328125 0 
L 7.328125 8.296875 
Q 12.9375 14.109375 22.625 23.890625 
Q 32.328125 33.6875 34.8125 36.53125 
Q 39.546875 41.84375 41.421875 45.53125 
Q 43.3125 49.21875 43.3125 52.78125 
Q 43.3125 58.59375 39.234375 62.25 
Q 35.15625 65.921875 28.609375 65.921875 
Q 23.96875 65.921875 18.8125 64.3125 
Q 13.671875 62.703125 7.8125 59.421875 
L 7.8125 69.390625 
Q 13.765625 71.78125 18.9375 73 
Q 24.125 74.21875 28.421875 74.21875 
Q 39.75 74.21875 46.484375 68.546875 
Q 53.21875 62.890625 53.21875 53.421875 
Q 53.21875 48.921875 51.53125 44.890625 
Q 49.859375 40.875 45.40625 35.40625 
Q 44.1875 33.984375 37.640625 27.21875 
Q 31.109375 20.453125 19.1875 8.296875 
z
" id="DejaVuSans-50"/>
      </defs>
      <g transform="translate(174.01875 226.898437)scale(0.1 -0.1)">
       <use xlink:href="#DejaVuSans-50"/>
      </g>
     </g>
    </g>
    <g id="xtick_4">
     <g id="line2d_4">
      <g>
       <use style="stroke:#000000;stroke-width:0.8;" x="241.2" xlink:href="#m4fd08a3a9b" y="212.3"/>
      </g>
     </g>
     <g id="text_4">
      <!-- 3 -->
      <defs>
       <path d="M 40.578125 39.3125 
Q 47.65625 37.796875 51.625 33 
Q 55.609375 28.21875 55.609375 21.1875 
Q 55.609375 10.40625 48.1875 4.484375 
Q 40.765625 -1.421875 27.09375 -1.421875 
Q 22.515625 -1.421875 17.65625 -0.515625 
Q 12.796875 0.390625 7.625 2.203125 
L 7.625 11.71875 
Q 11.71875 9.328125 16.59375 8.109375 
Q 21.484375 6.890625 26.8125 6.890625 
Q 36.078125 6.890625 40.9375 10.546875 
Q 45.796875 14.203125 45.796875 21.1875 
Q 45.796875 27.640625 41.28125 31.265625 
Q 36.765625 34.90625 28.71875 34.90625 
L 20.21875 34.90625 
L 20.21875 43.015625 
L 29.109375 43.015625 
Q 36.375 43.015625 40.234375 45.921875 
Q 44.09375 48.828125 44.09375 54.296875 
Q 44.09375 59.90625 40.109375 62.90625 
Q 36.140625 65.921875 28.71875 65.921875 
Q 24.65625 65.921875 20.015625 65.03125 
Q 15.375 64.15625 9.8125 62.3125 
L 9.8125 71.09375 
Q 15.4375 72.65625 20.34375 73.4375 
Q 25.25 74.21875 29.59375 74.21875 
Q 40.828125 74.21875 47.359375 69.109375 
Q 53.90625 64.015625 53.90625 55.328125 
Q 53.90625 49.265625 50.4375 45.09375 
Q 46.96875 40.921875 40.578125 39.3125 
z
" id="DejaVuSans-51"/>
      </defs>
      <g transform="translate(238.01875 226.898437)scale(0.1 -0.1)">
       <use xlink:href="#DejaVuSans-51"/>
      </g>
     </g>
    </g>
    <g id="text_5">
     <!-- t -->
     <defs>
      <path d="M 18.3125 70.21875 
L 18.3125 54.6875 
L 36.8125 54.6875 
L 36.8125 47.703125 
L 18.3125 47.703125 
L 18.3125 18.015625 
Q 18.3125 11.328125 20.140625 9.421875 
Q 21.96875 7.515625 27.59375 7.515625 
L 36.8125 7.515625 
L 36.8125 0 
L 27.59375 0 
Q 17.1875 0 13.234375 3.875 
Q 9.28125 7.765625 9.28125 18.015625 
L 9.28125 47.703125 
L 2.6875 47.703125 
L 2.6875 54.6875 
L 9.28125 54.6875 
L 9.28125 70.21875 
z
" id="DejaVuSans-116"/>
     </defs>
     <g transform="translate(148.039844 240.576562)scale(0.1 -0.1)">
      <use xlink:href="#DejaVuSans-116"/>
     </g>
    </g>
   </g>
   <g id="matplotlib.axis_2">
    <g id="ytick_1">
     <g id="line2d_5">
      <defs>
       <path d="M 0 0 
L -3.5 0 
" id="m99f908a682" style="stroke:#000000;stroke-width:0.8;"/>
      </defs>
      <g>
       <use style="stroke:#000000;stroke-width:0.8;" x="49.2" xlink:href="#m99f908a682" y="195.909968"/>
      </g>
     </g>
     <g id="text_6">
      <!-- −20 -->
      <defs>
       <path d="M 10.59375 35.5 
L 73.1875 35.5 
L 73.1875 27.203125 
L 10.59375 27.203125 
z
" id="DejaVuSans-8722"/>
      </defs>
      <g transform="translate(21.095313 199.709186)scale(0.1 -0.1)">
       <use xlink:href="#DejaVuSans-8722"/>
       <use x="83.789062" xlink:href="#DejaVuSans-50"/>
       <use x="147.412109" xlink:href="#DejaVuSans-48"/>
      </g>
     </g>
    </g>
    <g id="ytick_2">
     <g id="line2d_6">
      <g>
       <use style="stroke:#000000;stroke-width:0.8;" x="49.2" xlink:href="#m99f908a682" y="153.704984"/>
      </g>
     </g>
     <g id="text_7">
      <!-- −10 -->
      <g transform="translate(21.095313 157.504203)scale(0.1 -0.1)">
       <use xlink:href="#DejaVuSans-8722"/>
       <use x="83.789062" xlink:href="#DejaVuSans-49"/>
       <use x="147.412109" xlink:href="#DejaVuSans-48"/>
      </g>
     </g>
    </g>
    <g id="ytick_3">
     <g id="line2d_7">
      <g>
       <use style="stroke:#000000;stroke-width:0.8;" x="49.2" xlink:href="#m99f908a682" y="111.5"/>
      </g>
     </g>
     <g id="text_8">
      <!-- 0 -->
      <g transform="translate(35.8375 115.299219)scale(0.1 -0.1)">
       <use xlink:href="#DejaVuSans-48"/>
      </g>
     </g>
    </g>
    <g id="ytick_4">
     <g id="line2d_8">
      <g>
       <use style="stroke:#000000;stroke-width:0.8;" x="49.2" xlink:href="#m99f908a682" y="69.295016"/>
      </g>
     </g>
     <g id="text_9">
      <!-- 10 -->
      <g transform="translate(29.475 73.094235)scale(0.1 -0.1)">
       <use xlink:href="#DejaVuSans-49"/>
       <use x="63.623047" xlink:href="#DejaVuSans-48"/>
      </g>
     </g>
    </g>
    <g id="ytick_5">
     <g id="line2d_9">
      <g>
       <use style="stroke:#000000;stroke-width:0.8;" x="49.2" xlink:href="#m99f908a682" y="27.090032"/>
      </g>
     </g>
     <g id="text_10">
      <!-- 20 -->
      <g transform="translate(29.475 30.889251)scale(0.1 -0.1)">
       <use xlink:href="#DejaVuSans-50"/>
       <use x="63.623047" xlink:href="#DejaVuSans-48"/>
      </g>
     </g>
    </g>
    <g id="text_11">
     <!-- $\epsilon$ -->
     <defs>
      <path d="M 19.734375 29.5 
Q 14.453125 30.671875 12.15625 33.84375 
Q 10.453125 36.078125 10.453125 39.109375 
Q 10.453125 47.40625 18.359375 52.25 
Q 24.609375 56.0625 34.1875 56.0625 
Q 37.890625 56.0625 41.9375 55.46875 
Q 46 54.890625 50.53125 53.71875 
L 48.96875 45.5625 
Q 44.484375 46.96875 40.71875 47.609375 
Q 36.859375 48.25 33.40625 48.25 
Q 27.59375 48.25 23.78125 46 
Q 19.1875 43.3125 19.1875 39.40625 
Q 19.1875 36.8125 21.578125 35.015625 
Q 24.421875 32.859375 30.078125 32.859375 
L 37.640625 32.859375 
L 36.234375 25.4375 
L 29 25.4375 
Q 22.265625 25.4375 18.3125 22.953125 
Q 12.9375 19.578125 12.9375 14.3125 
Q 12.9375 10.984375 15.828125 8.796875 
Q 19.4375 6.0625 26.8125 6.0625 
Q 31.34375 6.0625 35.6875 6.9375 
Q 40.046875 7.859375 43.84375 9.671875 
L 42.1875 1.3125 
Q 37.546875 -0.046875 33.296875 -0.734375 
Q 29.046875 -1.421875 25.140625 -1.421875 
Q 13.53125 -1.421875 8.0625 3.03125 
Q 3.90625 6.453125 3.90625 12.203125 
Q 3.90625 19.96875 9.375 24.75 
Q 13.421875 28.328125 19.734375 29.5 
z
" id="DejaVuSans-Oblique-949"/>
     </defs>
     <g transform="translate(15.015625 114.25)rotate(-90)scale(0.1 -0.1)">
      <use transform="translate(0 0.9375)" xlink:href="#DejaVuSans-Oblique-949"/>
     </g>
    </g>
   </g>
   <g id="LineCollection_3">
    <path clip-path="url(#p56a76997f6)" d="M 49.2 111.5 
L 70.533333 119.692129 
L 91.866667 127.884258 
L 113.2 136.076387 
L 134.533333 144.268516 
L 155.866667 152.460645 
L 177.2 160.652774 
L 198.533333 168.844903 
L 219.866667 177.037032 
L 241.2 185.22916 
" style="fill:none;stroke:#0000ff;stroke-opacity:0.571429;stroke-width:1.5;"/>
   </g>
   <g id="patch_3">
    <path d="M 49.2 212.3 
L 49.2 10.7 
" style="fill:none;stroke:#000000;stroke-linecap:square;stroke-linejoin:miter;stroke-width:0.8;"/>
   </g>
   <g id="patch_4">
    <path d="M 49.2 212.3 
L 250.8 212.3 
" style="fill:none;stroke:#000000;stroke-linecap:square;stroke-linejoin:miter;stroke-width:0.8;"/>
   </g>
   <g id="LineCollection_4">
    <path clip-path="url(#p56a76997f6)" d="M 49.2 111.5 
L 70.533333 118.560836 
L 91.866667 125.621671 
L 113.2 132.682507 
L 134.533333 139.743343 
L 155.866667 146.804178 
L 177.2 153.865014 
L 198.533333 160.92585 
L 219.866667 167.986685 
L 241.2 175.047521 
" style="fill:none;stroke:#0000ff;stroke-opacity:0.607143;stroke-width:1.5;"/>
   </g>
   <g id="text_12">
    <!-- μ = 0 -->
    <defs>
     <path d="M 8.5 -20.796875 
L 8.5 54.6875 
L 17.484375 54.6875 
L 17.484375 20.703125 
Q 17.484375 13.625 20.84375 10 
Q 24.21875 6.390625 30.8125 6.390625 
Q 38.03125 6.390625 41.671875 10.484375 
Q 45.3125 14.59375 45.3125 22.796875 
L 45.3125 54.6875 
L 54.296875 54.6875 
L 54.296875 12.59375 
Q 54.296875 9.671875 55.140625 8.28125 
Q 56 6.890625 57.8125 6.890625 
Q 58.25 6.890625 59.03125 7.15625 
Q 59.8125 7.421875 61.1875 8.015625 
L 61.1875 0.78125 
Q 59.1875 -0.34375 57.390625 -0.875 
Q 55.609375 -1.421875 53.90625 -1.421875 
Q 50.53125 -1.421875 48.53125 0.484375 
Q 46.53125 2.390625 45.796875 6.296875 
Q 43.359375 2.4375 39.8125 0.5 
Q 36.28125 -1.421875 31.5 -1.421875 
Q 26.515625 -1.421875 23.015625 0.484375 
Q 19.53125 2.390625 17.484375 6.203125 
L 17.484375 -20.796875 
z
" id="DejaVuSans-956"/>
     <path id="DejaVuSans-32"/>
     <path d="M 10.59375 45.40625 
L 73.1875 45.40625 
L 73.1875 37.203125 
L 10.59375 37.203125 
z
M 10.59375 25.484375 
L 73.1875 25.484375 
L 73.1875 17.1875 
L 10.59375 17.1875 
z
" id="DejaVuSans-61"/>
    </defs>
    <g transform="translate(250.8 81.217812)scale(0.12 -0.12)">
     <use xlink:href="#DejaVuSans-956"/>
     <use x="63.623047" xlink:href="#DejaVuSans-32"/>
     <use x="95.410156" xlink:href="#DejaVuSans-61"/>
     <use x="179.199219" xlink:href="#DejaVuSans-32"/>
     <use x="210.986328" xlink:href="#DejaVuSans-48"/>
    </g>
    <!-- J = 0 -->
    <defs>
     <path d="M 9.8125 72.90625 
L 19.671875 72.90625 
L 19.671875 5.078125 
Q 19.671875 -8.109375 14.671875 -14.0625 
Q 9.671875 -20.015625 -1.421875 -20.015625 
L -5.171875 -20.015625 
L -5.171875 -11.71875 
L -2.09375 -11.71875 
Q 4.4375 -11.71875 7.125 -8.046875 
Q 9.8125 -4.390625 9.8125 5.078125 
z
" id="DejaVuSans-74"/>
    </defs>
    <g transform="translate(250.8 94.655187)scale(0.12 -0.12)">
     <use xlink:href="#DejaVuSans-74"/>
     <use x="29.492188" xlink:href="#DejaVuSans-32"/>
     <use x="61.279297" xlink:href="#DejaVuSans-61"/>
     <use x="145.068359" xlink:href="#DejaVuSans-32"/>
     <use x="176.855469" xlink:href="#DejaVuSans-48"/>
    </g>
    <!-- $\Delta$ = 0 -->
    <defs>
     <path d="M 34.1875 63.1875 
L 14.15625 8.203125 
L 54.25 8.203125 
z
M 0.78125 0 
L 28.609375 72.90625 
L 39.796875 72.90625 
L 67.578125 0 
z
" id="DejaVuSans-916"/>
    </defs>
    <g transform="translate(250.8 108.092562)scale(0.12 -0.12)">
     <use transform="translate(0 0.78125)" xlink:href="#DejaVuSans-916"/>
     <use transform="translate(68.408203 0.78125)" xlink:href="#DejaVuSans-32"/>
     <use transform="translate(100.195312 0.78125)" xlink:href="#DejaVuSans-61"/>
     <use transform="translate(183.984375 0.78125)" xlink:href="#DejaVuSans-32"/>
     <use transform="translate(215.771484 0.78125)" xlink:href="#DejaVuSans-48"/>
    </g>
    <!-- q = 1 -->
    <defs>
     <path d="M 14.796875 27.296875 
Q 14.796875 17.390625 18.875 11.75 
Q 22.953125 6.109375 30.078125 6.109375 
Q 37.203125 6.109375 41.296875 11.75 
Q 45.40625 17.390625 45.40625 27.296875 
Q 45.40625 37.203125 41.296875 42.84375 
Q 37.203125 48.484375 30.078125 48.484375 
Q 22.953125 48.484375 18.875 42.84375 
Q 14.796875 37.203125 14.796875 27.296875 
z
M 45.40625 8.203125 
Q 42.578125 3.328125 38.25 0.953125 
Q 33.9375 -1.421875 27.875 -1.421875 
Q 17.96875 -1.421875 11.734375 6.484375 
Q 5.515625 14.40625 5.515625 27.296875 
Q 5.515625 40.1875 11.734375 48.09375 
Q 17.96875 56 27.875 56 
Q 33.9375 56 38.25 53.625 
Q 42.578125 51.265625 45.40625 46.390625 
L 45.40625 54.6875 
L 54.390625 54.6875 
L 54.390625 -20.796875 
L 45.40625 -20.796875 
z
" id="DejaVuSans-113"/>
    </defs>
    <g transform="translate(250.8 121.529937)scale(0.12 -0.12)">
     <use xlink:href="#DejaVuSans-113"/>
     <use x="63.476562" xlink:href="#DejaVuSans-32"/>
     <use x="95.263672" xlink:href="#DejaVuSans-61"/>
     <use x="179.052734" xlink:href="#DejaVuSans-32"/>
     <use x="210.839844" xlink:href="#DejaVuSans-49"/>
    </g>
    <!-- p = 1 -->
    <defs>
     <path d="M 18.109375 8.203125 
L 18.109375 -20.796875 
L 9.078125 -20.796875 
L 9.078125 54.6875 
L 18.109375 54.6875 
L 18.109375 46.390625 
Q 20.953125 51.265625 25.265625 53.625 
Q 29.59375 56 35.59375 56 
Q 45.5625 56 51.78125 48.09375 
Q 58.015625 40.1875 58.015625 27.296875 
Q 58.015625 14.40625 51.78125 6.484375 
Q 45.5625 -1.421875 35.59375 -1.421875 
Q 29.59375 -1.421875 25.265625 0.953125 
Q 20.953125 3.328125 18.109375 8.203125 
z
M 48.6875 27.296875 
Q 48.6875 37.203125 44.609375 42.84375 
Q 40.53125 48.484375 33.40625 48.484375 
Q 26.265625 48.484375 22.1875 42.84375 
Q 18.109375 37.203125 18.109375 27.296875 
Q 18.109375 17.390625 22.1875 11.75 
Q 26.265625 6.109375 33.40625 6.109375 
Q 40.53125 6.109375 44.609375 11.75 
Q 48.6875 17.390625 48.6875 27.296875 
z
" id="DejaVuSans-112"/>
    </defs>
    <g transform="translate(250.8 134.967312)scale(0.12 -0.12)">
     <use xlink:href="#DejaVuSans-112"/>
     <use x="63.476562" xlink:href="#DejaVuSans-32"/>
     <use x="95.263672" xlink:href="#DejaVuSans-61"/>
     <use x="179.052734" xlink:href="#DejaVuSans-32"/>
     <use x="210.839844" xlink:href="#DejaVuSans-49"/>
    </g>
    <!--  -->
    <g transform="translate(250.8 148.404687)scale(0.12 -0.12)"/>
   </g>
   <g id="LineCollection_5">
    <path clip-path="url(#p56a76997f6)" d="M 49.2 111.5 
L 70.533333 117.713522 
L 91.866667 123.927044 
L 113.2 130.140567 
L 134.533333 136.354089 
L 155.866667 142.567611 
L 177.2 148.781133 
L 198.533333 154.994656 
L 219.866667 161.208178 
L 241.2 167.4217 
" style="fill:none;stroke:#0000ff;stroke-opacity:0.642857;stroke-width:1.5;"/>
   </g>
   <g id="LineCollection_6">
    <path clip-path="url(#p56a76997f6)" d="M 49.2 111.5 
L 70.533333 117.127331 
L 91.866667 122.754662 
L 113.2 128.381994 
L 134.533333 134.009325 
L 155.866667 139.636656 
L 177.2 145.263987 
L 198.533333 150.891318 
L 219.866667 156.518649 
L 241.2 162.145981 
" style="fill:none;stroke:#0000ff;stroke-opacity:0.678571;stroke-width:1.5;"/>
   </g>
   <g id="LineCollection_7">
    <path clip-path="url(#p56a76997f6)" d="M 49.2 111.5 
L 70.533333 116.562548 
L 91.866667 121.625096 
L 113.2 126.687644 
L 134.533333 131.750192 
L 155.866667 136.81274 
L 177.2 141.875288 
L 198.533333 146.937836 
L 219.866667 152.000384 
L 241.2 157.062932 
" style="fill:none;stroke:#0000ff;stroke-opacity:0.714286;stroke-width:1.5;"/>
   </g>
   <g id="LineCollection_8">
    <path clip-path="url(#p56a76997f6)" d="M 49.2 111.5 
L 70.533333 115.699794 
L 91.866667 119.899589 
L 113.2 124.099383 
L 134.533333 128.299177 
L 155.866667 132.498971 
L 177.2 136.698766 
L 198.533333 140.89856 
L 219.866667 145.098354 
L 241.2 149.298148 
" style="fill:none;stroke:#0000ff;stroke-opacity:0.75;stroke-width:1.5;"/>
   </g>
   <g id="LineCollection_9">
    <path clip-path="url(#p56a76997f6)" d="M 49.2 111.5 
L 70.533333 114.686771 
L 91.866667 117.873542 
L 113.2 121.060312 
L 134.533333 124.247083 
L 155.866667 127.433854 
L 177.2 130.620625 
L 198.533333 133.807395 
L 219.866667 136.994166 
L 241.2 140.180937 
" style="fill:none;stroke:#0000ff;stroke-opacity:0.785714;stroke-width:1.5;"/>
   </g>
   <g id="LineCollection_10">
    <path clip-path="url(#p56a76997f6)" d="M 49.2 111.5 
L 70.533333 113.321006 
L 91.866667 115.142012 
L 113.2 116.963018 
L 134.533333 118.784024 
L 155.866667 120.605029 
L 177.2 122.426035 
L 198.533333 124.247041 
L 219.866667 126.068047 
L 241.2 127.889053 
" style="fill:none;stroke:#0000ff;stroke-opacity:0.821429;stroke-width:1.5;"/>
   </g>
   <g id="LineCollection_11">
    <path clip-path="url(#p56a76997f6)" d="M 49.2 111.5 
L 70.533333 111.638235 
L 91.866667 111.77647 
L 113.2 111.914704 
L 134.533333 112.052939 
L 155.866667 112.191174 
L 177.2 112.329409 
L 198.533333 112.467643 
L 219.866667 112.605878 
L 241.2 112.744113 
" style="fill:none;stroke:#0000ff;stroke-opacity:0.857143;stroke-width:1.5;"/>
   </g>
   <g id="LineCollection_12">
    <path clip-path="url(#p56a76997f6)" d="M 49.2 111.5 
L 70.533333 111.638235 
L 91.866667 111.77647 
L 113.2 111.914704 
L 134.533333 112.052939 
L 155.866667 112.191174 
L 177.2 112.329409 
L 198.533333 112.467643 
L 219.866667 112.605878 
L 241.2 112.744113 
" style="fill:none;stroke:#0000ff;stroke-opacity:0.892857;stroke-width:1.5;"/>
   </g>
   <g id="LineCollection_13">
    <path clip-path="url(#p56a76997f6)" d="M 49.2 111.5 
L 70.533333 111.554662 
L 91.866667 111.609325 
L 113.2 111.663987 
L 134.533333 111.718649 
L 155.866667 111.773312 
L 177.2 111.827974 
L 198.533333 111.882636 
L 219.866667 111.937299 
L 241.2 111.991961 
" style="fill:none;stroke:#0000ff;stroke-opacity:0.928571;stroke-width:1.5;"/>
   </g>
   <g id="LineCollection_14">
    <path clip-path="url(#p56a76997f6)" d="M 49.2 111.5 
L 70.533333 111.554662 
L 91.866667 111.609325 
L 113.2 111.663987 
L 134.533333 111.718649 
L 155.866667 111.773312 
L 177.2 111.827974 
L 198.533333 111.882636 
L 219.866667 111.937299 
L 241.2 111.991961 
" style="fill:none;stroke:#0000ff;stroke-opacity:0.964286;stroke-width:1.5;"/>
   </g>
   <g id="LineCollection_15">
    <path clip-path="url(#p56a76997f6)" d="M 49.2 111.5 
L 70.533333 111.445338 
L 91.866667 111.390675 
L 113.2 111.336013 
L 134.533333 111.281351 
L 155.866667 111.226688 
L 177.2 111.172026 
L 198.533333 111.117364 
L 219.866667 111.062701 
L 241.2 111.008039 
" style="fill:none;stroke:#ff0000;stroke-width:1.5;"/>
   </g>
   <g id="LineCollection_16">
    <path clip-path="url(#p56a76997f6)" d="M 49.2 111.5 
L 70.533333 111.445338 
L 91.866667 111.390675 
L 113.2 111.336013 
L 134.533333 111.281351 
L 155.866667 111.226688 
L 177.2 111.172026 
L 198.533333 111.117364 
L 219.866667 111.062701 
L 241.2 111.008039 
" style="fill:none;stroke:#ff0000;stroke-opacity:0.964286;stroke-width:1.5;"/>
   </g>
   <g id="LineCollection_17">
    <path clip-path="url(#p56a76997f6)" d="M 49.2 111.5 
L 70.533333 111.361765 
L 91.866667 111.22353 
L 113.2 111.085296 
L 134.533333 110.947061 
L 155.866667 110.808826 
L 177.2 110.670591 
L 198.533333 110.532357 
L 219.866667 110.394122 
L 241.2 110.255887 
" style="fill:none;stroke:#ff0000;stroke-opacity:0.928571;stroke-width:1.5;"/>
   </g>
   <g id="LineCollection_18">
    <path clip-path="url(#p56a76997f6)" d="M 49.2 111.5 
L 70.533333 111.361765 
L 91.866667 111.22353 
L 113.2 111.085296 
L 134.533333 110.947061 
L 155.866667 110.808826 
L 177.2 110.670591 
L 198.533333 110.532357 
L 219.866667 110.394122 
L 241.2 110.255887 
" style="fill:none;stroke:#ff0000;stroke-opacity:0.892857;stroke-width:1.5;"/>
   </g>
   <g id="LineCollection_19">
    <path clip-path="url(#p56a76997f6)" d="M 49.2 111.5 
L 70.533333 109.896593 
L 91.866667 108.293185 
L 113.2 106.689778 
L 134.533333 105.08637 
L 155.866667 103.482963 
L 177.2 101.879555 
L 198.533333 100.276148 
L 219.866667 98.67274 
L 241.2 97.069333 
" style="fill:none;stroke:#ff0000;stroke-opacity:0.857143;stroke-width:1.5;"/>
   </g>
   <g id="LineCollection_20">
    <path clip-path="url(#p56a76997f6)" d="M 49.2 111.5 
L 70.533333 108.501526 
L 91.866667 105.503052 
L 113.2 102.504578 
L 134.533333 99.506104 
L 155.866667 96.50763 
L 177.2 93.509156 
L 198.533333 90.510682 
L 219.866667 87.512208 
L 241.2 84.513734 
" style="fill:none;stroke:#ff0000;stroke-opacity:0.821429;stroke-width:1.5;"/>
   </g>
   <g id="LineCollection_21">
    <path clip-path="url(#p56a76997f6)" d="M 49.2 111.5 
L 70.533333 107.353225 
L 91.866667 103.20645 
L 113.2 99.059676 
L 134.533333 94.912901 
L 155.866667 90.766126 
L 177.2 86.619351 
L 198.533333 82.472576 
L 219.866667 78.325802 
L 241.2 74.179027 
" style="fill:none;stroke:#ff0000;stroke-opacity:0.785714;stroke-width:1.5;"/>
   </g>
   <g id="LineCollection_22">
    <path clip-path="url(#p56a76997f6)" d="M 49.2 111.5 
L 70.533333 106.486453 
L 91.866667 101.472906 
L 113.2 96.459359 
L 134.533333 91.445812 
L 155.866667 86.432266 
L 177.2 81.418719 
L 198.533333 76.405172 
L 219.866667 71.391625 
L 241.2 66.378078 
" style="fill:none;stroke:#ff0000;stroke-opacity:0.75;stroke-width:1.5;"/>
   </g>
   <g id="LineCollection_23">
    <path clip-path="url(#p56a76997f6)" d="M 49.2 111.5 
L 70.533333 105.872669 
L 91.866667 100.245338 
L 113.2 94.618006 
L 134.533333 88.990675 
L 155.866667 83.363344 
L 177.2 77.736013 
L 198.533333 72.108682 
L 219.866667 66.481351 
L 241.2 60.854019 
" style="fill:none;stroke:#ff0000;stroke-opacity:0.714286;stroke-width:1.5;"/>
   </g>
   <g id="LineCollection_24">
    <path clip-path="url(#p56a76997f6)" d="M 49.2 111.5 
L 70.533333 105.307886 
L 91.866667 99.115771 
L 113.2 92.923657 
L 134.533333 86.731542 
L 155.866667 80.539428 
L 177.2 74.347314 
L 198.533333 68.155199 
L 219.866667 61.963085 
L 241.2 55.770971 
" style="fill:none;stroke:#ff0000;stroke-opacity:0.678571;stroke-width:1.5;"/>
   </g>
   <g id="LineCollection_25">
    <path clip-path="url(#p56a76997f6)" d="M 49.2 111.5 
L 70.533333 104.445132 
L 91.866667 97.390264 
L 113.2 90.335396 
L 134.533333 83.280528 
L 155.866667 76.22566 
L 177.2 69.170792 
L 198.533333 62.115923 
L 219.866667 55.061055 
L 241.2 48.006187 
" style="fill:none;stroke:#ff0000;stroke-opacity:0.642857;stroke-width:1.5;"/>
   </g>
   <g id="LineCollection_26">
    <path clip-path="url(#p56a76997f6)" d="M 49.2 111.5 
L 70.533333 103.432108 
L 91.866667 95.364217 
L 113.2 87.296325 
L 134.533333 79.228434 
L 155.866667 71.160542 
L 177.2 63.092651 
L 198.533333 55.024759 
L 219.866667 46.956867 
L 241.2 38.888976 
" style="fill:none;stroke:#ff0000;stroke-opacity:0.607143;stroke-width:1.5;"/>
   </g>
   <g id="LineCollection_27">
    <path clip-path="url(#p56a76997f6)" d="M 49.2 111.5 
L 70.533333 102.041786 
L 91.866667 92.583572 
L 113.2 83.125358 
L 134.533333 73.667143 
L 155.866667 64.208929 
L 177.2 54.750715 
L 198.533333 45.292501 
L 219.866667 35.834287 
L 241.2 26.376073 
" style="fill:none;stroke:#ff0000;stroke-opacity:0.571429;stroke-width:1.5;"/>
   </g>
   <g id="LineCollection_28">
    <path clip-path="url(#p56a76997f6)" d="M 49.2 111.5 
L 70.533333 100.3 
L 91.866667 89.1 
L 113.2 77.9 
L 134.533333 66.7 
L 155.866667 55.5 
L 177.2 44.3 
L 198.533333 33.1 
L 219.866667 21.9 
L 241.2 10.7 
" style="fill:none;stroke:#ff0000;stroke-opacity:0.535714;stroke-width:1.5;"/>
   </g>
  </g>
 </g>
 <defs>
  <clipPath id="p56a76997f6">
   <rect height="201.6" width="201.6" x="49.2" y="10.7"/>
  </clipPath>
 </defs>
</svg>
