<?xml version="1.0" encoding="utf-8" standalone="no"?>
<!DOCTYPE svg PUBLIC "-//W3C//DTD SVG 1.1//EN"
  "http://www.w3.org/Graphics/SVG/1.1/DTD/svg11.dtd">
<!-- Created with matplotlib (https://matplotlib.org/) -->
<svg height="263pt" version="1.1" viewBox="0 0 292.658203 263" width="292.658203pt" xmlns="http://www.w3.org/2000/svg" xmlns:xlink="http://www.w3.org/1999/xlink">
 <defs>
  <style type="text/css">
*{stroke-linecap:butt;stroke-linejoin:round;}
  </style>
 </defs>
 <g id="figure_1">
  <g id="patch_1">
   <path d="M 0 263 
L 292.658203 263 
L 292.658203 0 
L 0 0 
z
" style="fill:#ffffff;"/>
  </g>
  <g id="axes_1">
   <g id="patch_2">
    <path d="M 49.2 224.8 
L 250.8 224.8 
L 250.8 23.2 
L 49.2 23.2 
z
" style="fill:#ffffff;"/>
   </g>
   <g id="LineCollection_1">
    <path clip-path="url(#pe5896f6fc3)" d="M 49.2 157.49103 
L 57.547826 153.101314 
L 65.895652 148.711599 
L 74.243478 144.321884 
L 82.591304 141.395407 
L 90.93913 145.785122 
L 99.286957 150.174837 
L 107.634783 154.564553 
L 115.982609 158.954268 
L 124.330435 163.343984 
L 132.678261 167.733699 
L 141.026087 172.123415 
L 149.373913 176.51313 
L 157.721739 180.902846 
L 166.069565 185.292561 
L 174.417391 189.682276 
L 182.765217 194.071992 
L 191.113043 198.461707 
L 199.46087 202.851423 
L 207.808696 207.241138 
L 216.156522 211.630854 
L 224.504348 216.020569 
L 232.852174 220.410285 
L 241.2 224.8 
" style="fill:none;stroke:#0000ff;stroke-opacity:0.5;stroke-width:1.5;"/>
   </g>
   <g id="LineCollection_2">
    <path clip-path="url(#pe5896f6fc3)" d="M 49.2 148.496682 
L 57.547826 144.106966 
L 65.895652 139.717251 
L 74.243478 135.86977 
L 82.591304 135.45754 
L 90.93913 136.790774 
L 99.286957 141.180489 
L 107.634783 145.570205 
L 115.982609 149.95992 
L 124.330435 154.349636 
L 132.678261 158.739351 
L 141.026087 163.129067 
L 149.373913 167.518782 
L 157.721739 171.908497 
L 166.069565 176.298213 
L 174.417391 180.687928 
L 182.765217 185.077644 
L 191.113043 189.467359 
L 199.46087 193.857075 
L 207.808696 198.24679 
L 216.156522 202.636506 
L 224.504348 207.026221 
L 232.852174 211.415936 
L 241.2 215.805652 
" style="fill:none;stroke:#0000ff;stroke-opacity:0.571429;stroke-width:1.5;"/>
   </g>
   <g id="matplotlib.axis_1">
    <g id="xtick_1">
     <g id="line2d_1">
      <defs>
       <path d="M 0 0 
L 0 3.5 
" id="m6a2b60a0c9" style="stroke:#000000;stroke-width:0.8;"/>
      </defs>
      <g>
       <use style="stroke:#000000;stroke-width:0.8;" x="49.2" xlink:href="#m6a2b60a0c9" y="224.8"/>
      </g>
     </g>
     <g id="text_1">
      <!-- 0 -->
      <defs>
       <path d="M 31.78125 66.40625 
Q 24.171875 66.40625 20.328125 58.90625 
Q 16.5 51.421875 16.5 36.375 
Q 16.5 21.390625 20.328125 13.890625 
Q 24.171875 6.390625 31.78125 6.390625 
Q 39.453125 6.390625 43.28125 13.890625 
Q 47.125 21.390625 47.125 36.375 
Q 47.125 51.421875 43.28125 58.90625 
Q 39.453125 66.40625 31.78125 66.40625 
z
M 31.78125 74.21875 
Q 44.046875 74.21875 50.515625 64.515625 
Q 56.984375 54.828125 56.984375 36.375 
Q 56.984375 17.96875 50.515625 8.265625 
Q 44.046875 -1.421875 31.78125 -1.421875 
Q 19.53125 -1.421875 13.0625 8.265625 
Q 6.59375 17.96875 6.59375 36.375 
Q 6.59375 54.828125 13.0625 64.515625 
Q 19.53125 74.21875 31.78125 74.21875 
z
" id="DejaVuSans-48"/>
      </defs>
      <g transform="translate(46.01875 239.398437)scale(0.1 -0.1)">
       <use xlink:href="#DejaVuSans-48"/>
      </g>
     </g>
    </g>
    <g id="xtick_2">
     <g id="line2d_2">
      <g>
       <use style="stroke:#000000;stroke-width:0.8;" x="89.2" xlink:href="#m6a2b60a0c9" y="224.8"/>
      </g>
     </g>
     <g id="text_2">
      <!-- 5 -->
      <defs>
       <path d="M 10.796875 72.90625 
L 49.515625 72.90625 
L 49.515625 64.59375 
L 19.828125 64.59375 
L 19.828125 46.734375 
Q 21.96875 47.46875 24.109375 47.828125 
Q 26.265625 48.1875 28.421875 48.1875 
Q 40.625 48.1875 47.75 41.5 
Q 54.890625 34.8125 54.890625 23.390625 
Q 54.890625 11.625 47.5625 5.09375 
Q 40.234375 -1.421875 26.90625 -1.421875 
Q 22.3125 -1.421875 17.546875 -0.640625 
Q 12.796875 0.140625 7.71875 1.703125 
L 7.71875 11.625 
Q 12.109375 9.234375 16.796875 8.0625 
Q 21.484375 6.890625 26.703125 6.890625 
Q 35.15625 6.890625 40.078125 11.328125 
Q 45.015625 15.765625 45.015625 23.390625 
Q 45.015625 31 40.078125 35.4375 
Q 35.15625 39.890625 26.703125 39.890625 
Q 22.75 39.890625 18.8125 39.015625 
Q 14.890625 38.140625 10.796875 36.28125 
z
" id="DejaVuSans-53"/>
      </defs>
      <g transform="translate(86.01875 239.398437)scale(0.1 -0.1)">
       <use xlink:href="#DejaVuSans-53"/>
      </g>
     </g>
    </g>
    <g id="xtick_3">
     <g id="line2d_3">
      <g>
       <use style="stroke:#000000;stroke-width:0.8;" x="129.2" xlink:href="#m6a2b60a0c9" y="224.8"/>
      </g>
     </g>
     <g id="text_3">
      <!-- 10 -->
      <defs>
       <path d="M 12.40625 8.296875 
L 28.515625 8.296875 
L 28.515625 63.921875 
L 10.984375 60.40625 
L 10.984375 69.390625 
L 28.421875 72.90625 
L 38.28125 72.90625 
L 38.28125 8.296875 
L 54.390625 8.296875 
L 54.390625 0 
L 12.40625 0 
z
" id="DejaVuSans-49"/>
      </defs>
      <g transform="translate(122.8375 239.398437)scale(0.1 -0.1)">
       <use xlink:href="#DejaVuSans-49"/>
       <use x="63.623047" xlink:href="#DejaVuSans-48"/>
      </g>
     </g>
    </g>
    <g id="xtick_4">
     <g id="line2d_4">
      <g>
       <use style="stroke:#000000;stroke-width:0.8;" x="169.2" xlink:href="#m6a2b60a0c9" y="224.8"/>
      </g>
     </g>
     <g id="text_4">
      <!-- 15 -->
      <g transform="translate(162.8375 239.398437)scale(0.1 -0.1)">
       <use xlink:href="#DejaVuSans-49"/>
       <use x="63.623047" xlink:href="#DejaVuSans-53"/>
      </g>
     </g>
    </g>
    <g id="xtick_5">
     <g id="line2d_5">
      <g>
       <use style="stroke:#000000;stroke-width:0.8;" x="209.2" xlink:href="#m6a2b60a0c9" y="224.8"/>
      </g>
     </g>
     <g id="text_5">
      <!-- 20 -->
      <defs>
       <path d="M 19.1875 8.296875 
L 53.609375 8.296875 
L 53.609375 0 
L 7.328125 0 
L 7.328125 8.296875 
Q 12.9375 14.109375 22.625 23.890625 
Q 32.328125 33.6875 34.8125 36.53125 
Q 39.546875 41.84375 41.421875 45.53125 
Q 43.3125 49.21875 43.3125 52.78125 
Q 43.3125 58.59375 39.234375 62.25 
Q 35.15625 65.921875 28.609375 65.921875 
Q 23.96875 65.921875 18.8125 64.3125 
Q 13.671875 62.703125 7.8125 59.421875 
L 7.8125 69.390625 
Q 13.765625 71.78125 18.9375 73 
Q 24.125 74.21875 28.421875 74.21875 
Q 39.75 74.21875 46.484375 68.546875 
Q 53.21875 62.890625 53.21875 53.421875 
Q 53.21875 48.921875 51.53125 44.890625 
Q 49.859375 40.875 45.40625 35.40625 
Q 44.1875 33.984375 37.640625 27.21875 
Q 31.109375 20.453125 19.1875 8.296875 
z
" id="DejaVuSans-50"/>
      </defs>
      <g transform="translate(202.8375 239.398437)scale(0.1 -0.1)">
       <use xlink:href="#DejaVuSans-50"/>
       <use x="63.623047" xlink:href="#DejaVuSans-48"/>
      </g>
     </g>
    </g>
    <g id="xtick_6">
     <g id="line2d_6">
      <g>
       <use style="stroke:#000000;stroke-width:0.8;" x="249.2" xlink:href="#m6a2b60a0c9" y="224.8"/>
      </g>
     </g>
     <g id="text_6">
      <!-- 25 -->
      <g transform="translate(242.8375 239.398437)scale(0.1 -0.1)">
       <use xlink:href="#DejaVuSans-50"/>
       <use x="63.623047" xlink:href="#DejaVuSans-53"/>
      </g>
     </g>
    </g>
    <g id="text_7">
     <!-- μ -->
     <defs>
      <path d="M 8.5 -20.796875 
L 8.5 54.6875 
L 17.484375 54.6875 
L 17.484375 20.703125 
Q 17.484375 13.625 20.84375 10 
Q 24.21875 6.390625 30.8125 6.390625 
Q 38.03125 6.390625 41.671875 10.484375 
Q 45.3125 14.59375 45.3125 22.796875 
L 45.3125 54.6875 
L 54.296875 54.6875 
L 54.296875 12.59375 
Q 54.296875 9.671875 55.140625 8.28125 
Q 56 6.890625 57.8125 6.890625 
Q 58.25 6.890625 59.03125 7.15625 
Q 59.8125 7.421875 61.1875 8.015625 
L 61.1875 0.78125 
Q 59.1875 -0.34375 57.390625 -0.875 
Q 55.609375 -1.421875 53.90625 -1.421875 
Q 50.53125 -1.421875 48.53125 0.484375 
Q 46.53125 2.390625 45.796875 6.296875 
Q 43.359375 2.4375 39.8125 0.5 
Q 36.28125 -1.421875 31.5 -1.421875 
Q 26.515625 -1.421875 23.015625 0.484375 
Q 19.53125 2.390625 17.484375 6.203125 
L 17.484375 -20.796875 
z
" id="DejaVuSans-956"/>
     </defs>
     <g transform="translate(146.81875 253.076562)scale(0.1 -0.1)">
      <use xlink:href="#DejaVuSans-956"/>
     </g>
    </g>
   </g>
   <g id="matplotlib.axis_2">
    <g id="ytick_1">
     <g id="line2d_7">
      <defs>
       <path d="M 0 0 
L -3.5 0 
" id="mbde6447f4f" style="stroke:#000000;stroke-width:0.8;"/>
      </defs>
      <g>
       <use style="stroke:#000000;stroke-width:0.8;" x="49.2" xlink:href="#mbde6447f4f" y="208.136213"/>
      </g>
     </g>
     <g id="text_8">
      <!-- −20 -->
      <defs>
       <path d="M 10.59375 35.5 
L 73.1875 35.5 
L 73.1875 27.203125 
L 10.59375 27.203125 
z
" id="DejaVuSans-8722"/>
      </defs>
      <g transform="translate(21.095313 211.935431)scale(0.1 -0.1)">
       <use xlink:href="#DejaVuSans-8722"/>
       <use x="83.789062" xlink:href="#DejaVuSans-50"/>
       <use x="147.412109" xlink:href="#DejaVuSans-48"/>
      </g>
     </g>
    </g>
    <g id="ytick_2">
     <g id="line2d_8">
      <g>
       <use style="stroke:#000000;stroke-width:0.8;" x="49.2" xlink:href="#mbde6447f4f" y="166.068106"/>
      </g>
     </g>
     <g id="text_9">
      <!-- −10 -->
      <g transform="translate(21.095313 169.867325)scale(0.1 -0.1)">
       <use xlink:href="#DejaVuSans-8722"/>
       <use x="83.789062" xlink:href="#DejaVuSans-49"/>
       <use x="147.412109" xlink:href="#DejaVuSans-48"/>
      </g>
     </g>
    </g>
    <g id="ytick_3">
     <g id="line2d_9">
      <g>
       <use style="stroke:#000000;stroke-width:0.8;" x="49.2" xlink:href="#mbde6447f4f" y="124"/>
      </g>
     </g>
     <g id="text_10">
      <!-- 0 -->
      <g transform="translate(35.8375 127.799219)scale(0.1 -0.1)">
       <use xlink:href="#DejaVuSans-48"/>
      </g>
     </g>
    </g>
    <g id="ytick_4">
     <g id="line2d_10">
      <g>
       <use style="stroke:#000000;stroke-width:0.8;" x="49.2" xlink:href="#mbde6447f4f" y="81.931894"/>
      </g>
     </g>
     <g id="text_11">
      <!-- 10 -->
      <g transform="translate(29.475 85.731112)scale(0.1 -0.1)">
       <use xlink:href="#DejaVuSans-49"/>
       <use x="63.623047" xlink:href="#DejaVuSans-48"/>
      </g>
     </g>
    </g>
    <g id="ytick_5">
     <g id="line2d_11">
      <g>
       <use style="stroke:#000000;stroke-width:0.8;" x="49.2" xlink:href="#mbde6447f4f" y="39.863787"/>
      </g>
     </g>
     <g id="text_12">
      <!-- 20 -->
      <g transform="translate(29.475 43.663006)scale(0.1 -0.1)">
       <use xlink:href="#DejaVuSans-50"/>
       <use x="63.623047" xlink:href="#DejaVuSans-48"/>
      </g>
     </g>
    </g>
    <g id="text_13">
     <!-- $\epsilon$ -->
     <defs>
      <path d="M 19.734375 29.5 
Q 14.453125 30.671875 12.15625 33.84375 
Q 10.453125 36.078125 10.453125 39.109375 
Q 10.453125 47.40625 18.359375 52.25 
Q 24.609375 56.0625 34.1875 56.0625 
Q 37.890625 56.0625 41.9375 55.46875 
Q 46 54.890625 50.53125 53.71875 
L 48.96875 45.5625 
Q 44.484375 46.96875 40.71875 47.609375 
Q 36.859375 48.25 33.40625 48.25 
Q 27.59375 48.25 23.78125 46 
Q 19.1875 43.3125 19.1875 39.40625 
Q 19.1875 36.8125 21.578125 35.015625 
Q 24.421875 32.859375 30.078125 32.859375 
L 37.640625 32.859375 
L 36.234375 25.4375 
L 29 25.4375 
Q 22.265625 25.4375 18.3125 22.953125 
Q 12.9375 19.578125 12.9375 14.3125 
Q 12.9375 10.984375 15.828125 8.796875 
Q 19.4375 6.0625 26.8125 6.0625 
Q 31.34375 6.0625 35.6875 6.9375 
Q 40.046875 7.859375 43.84375 9.671875 
L 42.1875 1.3125 
Q 37.546875 -0.046875 33.296875 -0.734375 
Q 29.046875 -1.421875 25.140625 -1.421875 
Q 13.53125 -1.421875 8.0625 3.03125 
Q 3.90625 6.453125 3.90625 12.203125 
Q 3.90625 19.96875 9.375 24.75 
Q 13.421875 28.328125 19.734375 29.5 
z
" id="DejaVuSans-Oblique-949"/>
     </defs>
     <g transform="translate(15.015625 126.75)rotate(-90)scale(0.1 -0.1)">
      <use transform="translate(0 0.9375)" xlink:href="#DejaVuSans-Oblique-949"/>
     </g>
    </g>
   </g>
   <g id="LineCollection_3">
    <path clip-path="url(#pe5896f6fc3)" d="M 49.2 145.113809 
L 57.547826 140.724093 
L 65.895652 136.334378 
L 74.243478 133.842152 
L 82.591304 133.510373 
L 90.93913 134.22468 
L 99.286957 137.797616 
L 107.634783 142.187332 
L 115.982609 146.577047 
L 124.330435 150.966763 
L 132.678261 155.356478 
L 141.026087 159.746194 
L 149.373913 164.135909 
L 157.721739 168.525625 
L 166.069565 172.91534 
L 174.417391 177.305055 
L 182.765217 181.694771 
L 191.113043 186.084486 
L 199.46087 190.474202 
L 207.808696 194.863917 
L 216.156522 199.253633 
L 224.504348 203.643348 
L 232.852174 208.033064 
L 241.2 212.422779 
" style="fill:none;stroke:#0000ff;stroke-opacity:0.607143;stroke-width:1.5;"/>
   </g>
   <g id="patch_3">
    <path d="M 49.2 224.8 
L 49.2 23.2 
" style="fill:none;stroke:#000000;stroke-linecap:square;stroke-linejoin:miter;stroke-width:0.8;"/>
   </g>
   <g id="patch_4">
    <path d="M 49.2 224.8 
L 250.8 224.8 
" style="fill:none;stroke:#000000;stroke-linecap:square;stroke-linejoin:miter;stroke-width:0.8;"/>
   </g>
   <g id="LineCollection_4">
    <path clip-path="url(#pe5896f6fc3)" d="M 49.2 142.580112 
L 57.547826 138.190397 
L 65.895652 133.800682 
L 74.243478 131.926818 
L 82.591304 131.596642 
L 90.93913 132.387857 
L 99.286957 135.26392 
L 107.634783 139.653635 
L 115.982609 144.043351 
L 124.330435 148.433066 
L 132.678261 152.822782 
L 141.026087 157.212497 
L 149.373913 161.602213 
L 157.721739 165.991928 
L 166.069565 170.381644 
L 174.417391 174.771359 
L 182.765217 179.161074 
L 191.113043 183.55079 
L 199.46087 187.940505 
L 207.808696 192.330221 
L 216.156522 196.719936 
L 224.504348 201.109652 
L 232.852174 205.499367 
L 241.2 209.889083 
" style="fill:none;stroke:#0000ff;stroke-opacity:0.642857;stroke-width:1.5;"/>
   </g>
   <g id="text_14">
    <!-- t = 1 -->
    <defs>
     <path d="M 18.3125 70.21875 
L 18.3125 54.6875 
L 36.8125 54.6875 
L 36.8125 47.703125 
L 18.3125 47.703125 
L 18.3125 18.015625 
Q 18.3125 11.328125 20.140625 9.421875 
Q 21.96875 7.515625 27.59375 7.515625 
L 36.8125 7.515625 
L 36.8125 0 
L 27.59375 0 
Q 17.1875 0 13.234375 3.875 
Q 9.28125 7.765625 9.28125 18.015625 
L 9.28125 47.703125 
L 2.6875 47.703125 
L 2.6875 54.6875 
L 9.28125 54.6875 
L 9.28125 70.21875 
z
" id="DejaVuSans-116"/>
     <path id="DejaVuSans-32"/>
     <path d="M 10.59375 45.40625 
L 73.1875 45.40625 
L 73.1875 37.203125 
L 10.59375 37.203125 
z
M 10.59375 25.484375 
L 73.1875 25.484375 
L 73.1875 17.1875 
L 10.59375 17.1875 
z
" id="DejaVuSans-61"/>
    </defs>
    <g transform="translate(250.8 93.717813)scale(0.12 -0.12)">
     <use xlink:href="#DejaVuSans-116"/>
     <use x="39.208984" xlink:href="#DejaVuSans-32"/>
     <use x="70.996094" xlink:href="#DejaVuSans-61"/>
     <use x="154.785156" xlink:href="#DejaVuSans-32"/>
     <use x="186.572266" xlink:href="#DejaVuSans-49"/>
    </g>
    <!-- J = 0 -->
    <defs>
     <path d="M 9.8125 72.90625 
L 19.671875 72.90625 
L 19.671875 5.078125 
Q 19.671875 -8.109375 14.671875 -14.0625 
Q 9.671875 -20.015625 -1.421875 -20.015625 
L -5.171875 -20.015625 
L -5.171875 -11.71875 
L -2.09375 -11.71875 
Q 4.4375 -11.71875 7.125 -8.046875 
Q 9.8125 -4.390625 9.8125 5.078125 
z
" id="DejaVuSans-74"/>
    </defs>
    <g transform="translate(250.8 107.155188)scale(0.12 -0.12)">
     <use xlink:href="#DejaVuSans-74"/>
     <use x="29.492188" xlink:href="#DejaVuSans-32"/>
     <use x="61.279297" xlink:href="#DejaVuSans-61"/>
     <use x="145.068359" xlink:href="#DejaVuSans-32"/>
     <use x="176.855469" xlink:href="#DejaVuSans-48"/>
    </g>
    <!-- $\Delta$ = 0 -->
    <defs>
     <path d="M 34.1875 63.1875 
L 14.15625 8.203125 
L 54.25 8.203125 
z
M 0.78125 0 
L 28.609375 72.90625 
L 39.796875 72.90625 
L 67.578125 0 
z
" id="DejaVuSans-916"/>
    </defs>
    <g transform="translate(250.8 120.592563)scale(0.12 -0.12)">
     <use transform="translate(0 0.78125)" xlink:href="#DejaVuSans-916"/>
     <use transform="translate(68.408203 0.78125)" xlink:href="#DejaVuSans-32"/>
     <use transform="translate(100.195312 0.78125)" xlink:href="#DejaVuSans-61"/>
     <use transform="translate(183.984375 0.78125)" xlink:href="#DejaVuSans-32"/>
     <use transform="translate(215.771484 0.78125)" xlink:href="#DejaVuSans-48"/>
    </g>
    <!-- q = 1 -->
    <defs>
     <path d="M 14.796875 27.296875 
Q 14.796875 17.390625 18.875 11.75 
Q 22.953125 6.109375 30.078125 6.109375 
Q 37.203125 6.109375 41.296875 11.75 
Q 45.40625 17.390625 45.40625 27.296875 
Q 45.40625 37.203125 41.296875 42.84375 
Q 37.203125 48.484375 30.078125 48.484375 
Q 22.953125 48.484375 18.875 42.84375 
Q 14.796875 37.203125 14.796875 27.296875 
z
M 45.40625 8.203125 
Q 42.578125 3.328125 38.25 0.953125 
Q 33.9375 -1.421875 27.875 -1.421875 
Q 17.96875 -1.421875 11.734375 6.484375 
Q 5.515625 14.40625 5.515625 27.296875 
Q 5.515625 40.1875 11.734375 48.09375 
Q 17.96875 56 27.875 56 
Q 33.9375 56 38.25 53.625 
Q 42.578125 51.265625 45.40625 46.390625 
L 45.40625 54.6875 
L 54.390625 54.6875 
L 54.390625 -20.796875 
L 45.40625 -20.796875 
z
" id="DejaVuSans-113"/>
    </defs>
    <g transform="translate(250.8 134.029938)scale(0.12 -0.12)">
     <use xlink:href="#DejaVuSans-113"/>
     <use x="63.476562" xlink:href="#DejaVuSans-32"/>
     <use x="95.263672" xlink:href="#DejaVuSans-61"/>
     <use x="179.052734" xlink:href="#DejaVuSans-32"/>
     <use x="210.839844" xlink:href="#DejaVuSans-49"/>
    </g>
    <!-- p = 1 -->
    <defs>
     <path d="M 18.109375 8.203125 
L 18.109375 -20.796875 
L 9.078125 -20.796875 
L 9.078125 54.6875 
L 18.109375 54.6875 
L 18.109375 46.390625 
Q 20.953125 51.265625 25.265625 53.625 
Q 29.59375 56 35.59375 56 
Q 45.5625 56 51.78125 48.09375 
Q 58.015625 40.1875 58.015625 27.296875 
Q 58.015625 14.40625 51.78125 6.484375 
Q 45.5625 -1.421875 35.59375 -1.421875 
Q 29.59375 -1.421875 25.265625 0.953125 
Q 20.953125 3.328125 18.109375 8.203125 
z
M 48.6875 27.296875 
Q 48.6875 37.203125 44.609375 42.84375 
Q 40.53125 48.484375 33.40625 48.484375 
Q 26.265625 48.484375 22.1875 42.84375 
Q 18.109375 37.203125 18.109375 27.296875 
Q 18.109375 17.390625 22.1875 11.75 
Q 26.265625 6.109375 33.40625 6.109375 
Q 40.53125 6.109375 44.609375 11.75 
Q 48.6875 17.390625 48.6875 27.296875 
z
" id="DejaVuSans-112"/>
    </defs>
    <g transform="translate(250.8 147.467313)scale(0.12 -0.12)">
     <use xlink:href="#DejaVuSans-112"/>
     <use x="63.476562" xlink:href="#DejaVuSans-32"/>
     <use x="95.263672" xlink:href="#DejaVuSans-61"/>
     <use x="179.052734" xlink:href="#DejaVuSans-32"/>
     <use x="210.839844" xlink:href="#DejaVuSans-49"/>
    </g>
    <!--  -->
    <g transform="translate(250.8 160.904688)scale(0.12 -0.12)"/>
   </g>
   <g id="text_15">
    <!-- Spectrum(mu) -->
    <defs>
     <path d="M 53.515625 70.515625 
L 53.515625 60.890625 
Q 47.90625 63.578125 42.921875 64.890625 
Q 37.9375 66.21875 33.296875 66.21875 
Q 25.25 66.21875 20.875 63.09375 
Q 16.5 59.96875 16.5 54.203125 
Q 16.5 49.359375 19.40625 46.890625 
Q 22.3125 44.4375 30.421875 42.921875 
L 36.375 41.703125 
Q 47.40625 39.59375 52.65625 34.296875 
Q 57.90625 29 57.90625 20.125 
Q 57.90625 9.515625 50.796875 4.046875 
Q 43.703125 -1.421875 29.984375 -1.421875 
Q 24.8125 -1.421875 18.96875 -0.25 
Q 13.140625 0.921875 6.890625 3.21875 
L 6.890625 13.375 
Q 12.890625 10.015625 18.65625 8.296875 
Q 24.421875 6.59375 29.984375 6.59375 
Q 38.421875 6.59375 43.015625 9.90625 
Q 47.609375 13.234375 47.609375 19.390625 
Q 47.609375 24.75 44.3125 27.78125 
Q 41.015625 30.8125 33.5 32.328125 
L 27.484375 33.5 
Q 16.453125 35.6875 11.515625 40.375 
Q 6.59375 45.0625 6.59375 53.421875 
Q 6.59375 63.09375 13.40625 68.65625 
Q 20.21875 74.21875 32.171875 74.21875 
Q 37.3125 74.21875 42.625 73.28125 
Q 47.953125 72.359375 53.515625 70.515625 
z
" id="DejaVuSans-83"/>
     <path d="M 56.203125 29.59375 
L 56.203125 25.203125 
L 14.890625 25.203125 
Q 15.484375 15.921875 20.484375 11.0625 
Q 25.484375 6.203125 34.421875 6.203125 
Q 39.59375 6.203125 44.453125 7.46875 
Q 49.3125 8.734375 54.109375 11.28125 
L 54.109375 2.78125 
Q 49.265625 0.734375 44.1875 -0.34375 
Q 39.109375 -1.421875 33.890625 -1.421875 
Q 20.796875 -1.421875 13.15625 6.1875 
Q 5.515625 13.8125 5.515625 26.8125 
Q 5.515625 40.234375 12.765625 48.109375 
Q 20.015625 56 32.328125 56 
Q 43.359375 56 49.78125 48.890625 
Q 56.203125 41.796875 56.203125 29.59375 
z
M 47.21875 32.234375 
Q 47.125 39.59375 43.09375 43.984375 
Q 39.0625 48.390625 32.421875 48.390625 
Q 24.90625 48.390625 20.390625 44.140625 
Q 15.875 39.890625 15.1875 32.171875 
z
" id="DejaVuSans-101"/>
     <path d="M 48.78125 52.59375 
L 48.78125 44.1875 
Q 44.96875 46.296875 41.140625 47.34375 
Q 37.3125 48.390625 33.40625 48.390625 
Q 24.65625 48.390625 19.8125 42.84375 
Q 14.984375 37.3125 14.984375 27.296875 
Q 14.984375 17.28125 19.8125 11.734375 
Q 24.65625 6.203125 33.40625 6.203125 
Q 37.3125 6.203125 41.140625 7.25 
Q 44.96875 8.296875 48.78125 10.40625 
L 48.78125 2.09375 
Q 45.015625 0.34375 40.984375 -0.53125 
Q 36.96875 -1.421875 32.421875 -1.421875 
Q 20.0625 -1.421875 12.78125 6.34375 
Q 5.515625 14.109375 5.515625 27.296875 
Q 5.515625 40.671875 12.859375 48.328125 
Q 20.21875 56 33.015625 56 
Q 37.15625 56 41.109375 55.140625 
Q 45.0625 54.296875 48.78125 52.59375 
z
" id="DejaVuSans-99"/>
     <path d="M 41.109375 46.296875 
Q 39.59375 47.171875 37.8125 47.578125 
Q 36.03125 48 33.890625 48 
Q 26.265625 48 22.1875 43.046875 
Q 18.109375 38.09375 18.109375 28.8125 
L 18.109375 0 
L 9.078125 0 
L 9.078125 54.6875 
L 18.109375 54.6875 
L 18.109375 46.1875 
Q 20.953125 51.171875 25.484375 53.578125 
Q 30.03125 56 36.53125 56 
Q 37.453125 56 38.578125 55.875 
Q 39.703125 55.765625 41.0625 55.515625 
z
" id="DejaVuSans-114"/>
     <path d="M 8.5 21.578125 
L 8.5 54.6875 
L 17.484375 54.6875 
L 17.484375 21.921875 
Q 17.484375 14.15625 20.5 10.265625 
Q 23.53125 6.390625 29.59375 6.390625 
Q 36.859375 6.390625 41.078125 11.03125 
Q 45.3125 15.671875 45.3125 23.6875 
L 45.3125 54.6875 
L 54.296875 54.6875 
L 54.296875 0 
L 45.3125 0 
L 45.3125 8.40625 
Q 42.046875 3.421875 37.71875 1 
Q 33.40625 -1.421875 27.6875 -1.421875 
Q 18.265625 -1.421875 13.375 4.4375 
Q 8.5 10.296875 8.5 21.578125 
z
M 31.109375 56 
z
" id="DejaVuSans-117"/>
     <path d="M 52 44.1875 
Q 55.375 50.25 60.0625 53.125 
Q 64.75 56 71.09375 56 
Q 79.640625 56 84.28125 50.015625 
Q 88.921875 44.046875 88.921875 33.015625 
L 88.921875 0 
L 79.890625 0 
L 79.890625 32.71875 
Q 79.890625 40.578125 77.09375 44.375 
Q 74.3125 48.1875 68.609375 48.1875 
Q 61.625 48.1875 57.5625 43.546875 
Q 53.515625 38.921875 53.515625 30.90625 
L 53.515625 0 
L 44.484375 0 
L 44.484375 32.71875 
Q 44.484375 40.625 41.703125 44.40625 
Q 38.921875 48.1875 33.109375 48.1875 
Q 26.21875 48.1875 22.15625 43.53125 
Q 18.109375 38.875 18.109375 30.90625 
L 18.109375 0 
L 9.078125 0 
L 9.078125 54.6875 
L 18.109375 54.6875 
L 18.109375 46.1875 
Q 21.1875 51.21875 25.484375 53.609375 
Q 29.78125 56 35.6875 56 
Q 41.65625 56 45.828125 52.96875 
Q 50 49.953125 52 44.1875 
z
" id="DejaVuSans-109"/>
     <path d="M 31 75.875 
Q 24.46875 64.65625 21.28125 53.65625 
Q 18.109375 42.671875 18.109375 31.390625 
Q 18.109375 20.125 21.3125 9.0625 
Q 24.515625 -2 31 -13.1875 
L 23.1875 -13.1875 
Q 15.875 -1.703125 12.234375 9.375 
Q 8.59375 20.453125 8.59375 31.390625 
Q 8.59375 42.28125 12.203125 53.3125 
Q 15.828125 64.359375 23.1875 75.875 
z
" id="DejaVuSans-40"/>
     <path d="M 8.015625 75.875 
L 15.828125 75.875 
Q 23.140625 64.359375 26.78125 53.3125 
Q 30.421875 42.28125 30.421875 31.390625 
Q 30.421875 20.453125 26.78125 9.375 
Q 23.140625 -1.703125 15.828125 -13.1875 
L 8.015625 -13.1875 
Q 14.5 -2 17.703125 9.0625 
Q 20.90625 20.125 20.90625 31.390625 
Q 20.90625 42.671875 17.703125 53.65625 
Q 14.5 64.65625 8.015625 75.875 
z
" id="DejaVuSans-41"/>
    </defs>
    <g transform="translate(106.596563 17.2)scale(0.12 -0.12)">
     <use xlink:href="#DejaVuSans-83"/>
     <use x="63.476562" xlink:href="#DejaVuSans-112"/>
     <use x="126.953125" xlink:href="#DejaVuSans-101"/>
     <use x="188.476562" xlink:href="#DejaVuSans-99"/>
     <use x="243.457031" xlink:href="#DejaVuSans-116"/>
     <use x="282.666016" xlink:href="#DejaVuSans-114"/>
     <use x="323.779297" xlink:href="#DejaVuSans-117"/>
     <use x="387.158203" xlink:href="#DejaVuSans-109"/>
     <use x="484.570312" xlink:href="#DejaVuSans-40"/>
     <use x="523.583984" xlink:href="#DejaVuSans-109"/>
     <use x="620.996094" xlink:href="#DejaVuSans-117"/>
     <use x="684.375" xlink:href="#DejaVuSans-41"/>
    </g>
   </g>
   <g id="LineCollection_5">
    <path clip-path="url(#pe5896f6fc3)" d="M 49.2 140.827243 
L 57.547826 136.437527 
L 65.895652 132.047812 
L 74.243478 130.311198 
L 82.591304 129.935404 
L 90.93913 130.810189 
L 99.286957 133.51105 
L 107.634783 137.900766 
L 115.982609 142.290481 
L 124.330435 146.680196 
L 132.678261 151.069912 
L 141.026087 155.459627 
L 149.373913 159.849343 
L 157.721739 164.239058 
L 166.069565 168.628774 
L 174.417391 173.018489 
L 182.765217 177.408205 
L 191.113043 181.79792 
L 199.46087 186.187635 
L 207.808696 190.577351 
L 216.156522 194.967066 
L 224.504348 199.356782 
L 232.852174 203.746497 
L 241.2 208.136213 
" style="fill:none;stroke:#0000ff;stroke-opacity:0.678571;stroke-width:1.5;"/>
   </g>
   <g id="LineCollection_6">
    <path clip-path="url(#pe5896f6fc3)" d="M 49.2 139.138388 
L 57.547826 134.748672 
L 65.895652 130.873315 
L 74.243478 128.94876 
L 82.591304 128.334112 
L 90.93913 129.367409 
L 99.286957 131.822196 
L 107.634783 136.211911 
L 115.982609 140.601626 
L 124.330435 144.991342 
L 132.678261 149.381057 
L 141.026087 153.770773 
L 149.373913 158.160488 
L 157.721739 162.550204 
L 166.069565 166.939919 
L 174.417391 171.329635 
L 182.765217 175.71935 
L 191.113043 180.109065 
L 199.46087 184.498781 
L 207.808696 188.888496 
L 216.156522 193.278212 
L 224.504348 197.667927 
L 232.852174 202.057643 
L 241.2 206.447358 
" style="fill:none;stroke:#0000ff;stroke-opacity:0.714286;stroke-width:1.5;"/>
   </g>
   <g id="LineCollection_7">
    <path clip-path="url(#pe5896f6fc3)" d="M 49.2 136.558521 
L 57.547826 132.168806 
L 65.895652 129.39471 
L 74.243478 127.658096 
L 82.591304 127.00217 
L 90.93913 128.378908 
L 99.286957 129.95127 
L 107.634783 133.632044 
L 115.982609 138.021759 
L 124.330435 142.411475 
L 132.678261 146.80119 
L 141.026087 151.190906 
L 149.373913 155.580621 
L 157.721739 159.970337 
L 166.069565 164.360052 
L 174.417391 168.749768 
L 182.765217 173.139483 
L 191.113043 177.529198 
L 199.46087 181.918914 
L 207.808696 186.308629 
L 216.156522 190.698345 
L 224.504348 195.08806 
L 232.852174 199.477776 
L 241.2 203.867491 
" style="fill:none;stroke:#0000ff;stroke-opacity:0.75;stroke-width:1.5;"/>
   </g>
   <g id="LineCollection_8">
    <path clip-path="url(#pe5896f6fc3)" d="M 49.2 133.529307 
L 57.547826 129.139591 
L 65.895652 127.761245 
L 74.243478 126.59672 
L 82.591304 125.906116 
L 90.93913 127.044952 
L 99.286957 128.013473 
L 107.634783 130.60283 
L 115.982609 134.992545 
L 124.330435 139.382261 
L 132.678261 143.771976 
L 141.026087 148.161692 
L 149.373913 152.551407 
L 157.721739 156.941122 
L 166.069565 161.330838 
L 174.417391 165.720553 
L 182.765217 170.110269 
L 191.113043 174.499984 
L 199.46087 178.8897 
L 207.808696 183.279415 
L 216.156522 187.66913 
L 224.504348 192.058846 
L 232.852174 196.448561 
L 241.2 200.838277 
" style="fill:none;stroke:#0000ff;stroke-opacity:0.785714;stroke-width:1.5;"/>
   </g>
   <g id="LineCollection_9">
    <path clip-path="url(#pe5896f6fc3)" d="M 49.2 129.4453 
L 57.547826 126.433274 
L 65.895652 125.951629 
L 74.243478 125.39942 
L 82.591304 124.731619 
L 90.93913 125.682022 
L 99.286957 126.025691 
L 107.634783 126.655754 
L 115.982609 130.908539 
L 124.330435 135.298254 
L 132.678261 139.68797 
L 141.026087 144.077685 
L 149.373913 148.4674 
L 157.721739 152.857116 
L 166.069565 157.246831 
L 174.417391 161.636547 
L 182.765217 166.026262 
L 191.113043 170.415978 
L 199.46087 174.805693 
L 207.808696 179.195409 
L 216.156522 183.585124 
L 224.504348 187.974839 
L 232.852174 192.364555 
L 241.2 196.75427 
" style="fill:none;stroke:#0000ff;stroke-opacity:0.821429;stroke-width:1.5;"/>
   </g>
   <g id="LineCollection_10">
    <path clip-path="url(#pe5896f6fc3)" d="M 49.2 124.413359 
L 57.547826 124.045789 
L 65.895652 124.035518 
L 74.243478 124.099532 
L 82.591304 124.098943 
L 90.93913 124.061337 
L 99.286957 124.010808 
L 107.634783 124.123608 
L 115.982609 125.876598 
L 124.330435 130.266313 
L 132.678261 134.656029 
L 141.026087 139.045744 
L 149.373913 143.43546 
L 157.721739 147.825175 
L 166.069565 152.21489 
L 174.417391 156.604606 
L 182.765217 160.994321 
L 191.113043 165.384037 
L 199.46087 169.773752 
L 207.808696 174.163468 
L 216.156522 178.553183 
L 224.504348 182.942899 
L 232.852174 187.332614 
L 241.2 191.722329 
" style="fill:none;stroke:#0000ff;stroke-opacity:0.857143;stroke-width:1.5;"/>
   </g>
   <g id="LineCollection_11">
    <path clip-path="url(#pe5896f6fc3)" d="M 49.2 124.413359 
L 57.547826 124.045789 
L 65.895652 124.035518 
L 74.243478 124.099532 
L 82.591304 124.098943 
L 90.93913 124.061337 
L 99.286957 124.010808 
L 107.634783 124.123608 
L 115.982609 125.876598 
L 124.330435 130.266313 
L 132.678261 134.656029 
L 141.026087 139.045744 
L 149.373913 143.43546 
L 157.721739 147.825175 
L 166.069565 152.21489 
L 174.417391 156.604606 
L 182.765217 160.994321 
L 191.113043 165.384037 
L 199.46087 169.773752 
L 207.808696 174.163468 
L 216.156522 178.553183 
L 224.504348 182.942899 
L 232.852174 187.332614 
L 241.2 191.722329 
" style="fill:none;stroke:#0000ff;stroke-opacity:0.892857;stroke-width:1.5;"/>
   </g>
   <g id="LineCollection_12">
    <path clip-path="url(#pe5896f6fc3)" d="M 49.2 124.163455 
L 57.547826 124.045789 
L 65.895652 124.00686 
L 74.243478 124.055604 
L 82.591304 124.013455 
L 90.93913 124.01799 
L 99.286957 124.010808 
L 107.634783 124.123608 
L 115.982609 125.626694 
L 124.330435 130.016409 
L 132.678261 134.406125 
L 141.026087 138.79584 
L 149.373913 143.185555 
L 157.721739 147.575271 
L 166.069565 151.964986 
L 174.417391 156.354702 
L 182.765217 160.744417 
L 191.113043 165.134133 
L 199.46087 169.523848 
L 207.808696 173.913564 
L 216.156522 178.303279 
L 224.504348 182.692994 
L 232.852174 187.08271 
L 241.2 191.472425 
" style="fill:none;stroke:#0000ff;stroke-opacity:0.928571;stroke-width:1.5;"/>
   </g>
   <g id="LineCollection_13">
    <path clip-path="url(#pe5896f6fc3)" d="M 49.2 124.163455 
L 57.547826 124.045789 
L 65.895652 124.00686 
L 74.243478 124.055604 
L 82.591304 124.013455 
L 90.93913 124.01799 
L 99.286957 124.010808 
L 107.634783 124.123608 
L 115.982609 125.626694 
L 124.330435 130.016409 
L 132.678261 134.406125 
L 141.026087 138.79584 
L 149.373913 143.185555 
L 157.721739 147.575271 
L 166.069565 151.964986 
L 174.417391 156.354702 
L 182.765217 160.744417 
L 191.113043 165.134133 
L 199.46087 169.523848 
L 207.808696 173.913564 
L 216.156522 178.303279 
L 224.504348 182.692994 
L 232.852174 187.08271 
L 241.2 191.472425 
" style="fill:none;stroke:#0000ff;stroke-opacity:0.964286;stroke-width:1.5;"/>
   </g>
   <g id="LineCollection_14">
    <path clip-path="url(#pe5896f6fc3)" d="M 49.2 123.836545 
L 57.547826 123.954211 
L 65.895652 123.99314 
L 74.243478 123.944396 
L 82.591304 123.986545 
L 90.93913 123.98201 
L 99.286957 123.989192 
L 107.634783 123.876392 
L 115.982609 122.373306 
L 124.330435 117.983591 
L 132.678261 113.593875 
L 141.026087 109.20416 
L 149.373913 104.814445 
L 157.721739 100.424729 
L 166.069565 96.035014 
L 174.417391 91.645298 
L 182.765217 87.255583 
L 191.113043 82.865867 
L 199.46087 78.476152 
L 207.808696 74.086436 
L 216.156522 69.696721 
L 224.504348 65.307006 
L 232.852174 60.91729 
L 241.2 56.527575 
" style="fill:none;stroke:#ff0000;stroke-width:1.5;"/>
   </g>
   <g id="LineCollection_15">
    <path clip-path="url(#pe5896f6fc3)" d="M 49.2 123.586641 
L 57.547826 123.954211 
L 65.895652 123.964482 
L 74.243478 123.900468 
L 82.591304 123.901057 
L 90.93913 123.938663 
L 99.286957 123.989192 
L 107.634783 123.876392 
L 115.982609 122.123402 
L 124.330435 117.733687 
L 132.678261 113.343971 
L 141.026087 108.954256 
L 149.373913 104.56454 
L 157.721739 100.174825 
L 166.069565 95.78511 
L 174.417391 91.395394 
L 182.765217 87.005679 
L 191.113043 82.615963 
L 199.46087 78.226248 
L 207.808696 73.836532 
L 216.156522 69.446817 
L 224.504348 65.057101 
L 232.852174 60.667386 
L 241.2 56.277671 
" style="fill:none;stroke:#ff0000;stroke-opacity:0.928571;stroke-width:1.5;"/>
   </g>
   <g id="LineCollection_16">
    <path clip-path="url(#pe5896f6fc3)" d="M 49.2 123.586641 
L 57.547826 123.954211 
L 65.895652 123.964482 
L 74.243478 123.900468 
L 82.591304 123.901057 
L 90.93913 123.938663 
L 99.286957 123.989192 
L 107.634783 123.876392 
L 115.982609 122.123402 
L 124.330435 117.733687 
L 132.678261 113.343971 
L 141.026087 108.954256 
L 149.373913 104.56454 
L 157.721739 100.174825 
L 166.069565 95.78511 
L 174.417391 91.395394 
L 182.765217 87.005679 
L 191.113043 82.615963 
L 199.46087 78.226248 
L 207.808696 73.836532 
L 216.156522 69.446817 
L 224.504348 65.057101 
L 232.852174 60.667386 
L 241.2 56.277671 
" style="fill:none;stroke:#ff0000;stroke-opacity:0.892857;stroke-width:1.5;"/>
   </g>
   <g id="LineCollection_17">
    <path clip-path="url(#pe5896f6fc3)" d="M 49.2 119.205378 
L 57.547826 121.804465 
L 65.895652 122.217869 
L 74.243478 122.66057 
L 82.591304 123.268381 
L 90.93913 122.454312 
L 99.286957 122.265441 
L 107.634783 121.571669 
L 115.982609 117.742139 
L 124.330435 113.352424 
L 132.678261 108.962709 
L 141.026087 104.572993 
L 149.373913 100.183278 
L 157.721739 95.793562 
L 166.069565 91.403847 
L 174.417391 87.014131 
L 182.765217 82.624416 
L 191.113043 78.2347 
L 199.46087 73.844985 
L 207.808696 69.45527 
L 216.156522 65.065554 
L 224.504348 60.675839 
L 232.852174 56.286123 
L 241.2 51.896408 
" style="fill:none;stroke:#ff0000;stroke-opacity:0.857143;stroke-width:1.5;"/>
   </g>
   <g id="LineCollection_18">
    <path clip-path="url(#pe5896f6fc3)" d="M 49.2 115.033752 
L 57.547826 119.423467 
L 65.895652 120.429062 
L 74.243478 121.478305 
L 82.591304 122.131979 
L 90.93913 121.137341 
L 99.286957 120.27243 
L 107.634783 117.960229 
L 115.982609 113.570513 
L 124.330435 109.180798 
L 132.678261 104.791082 
L 141.026087 100.401367 
L 149.373913 96.011651 
L 157.721739 91.621936 
L 166.069565 87.23222 
L 174.417391 82.842505 
L 182.765217 78.45279 
L 191.113043 74.063074 
L 199.46087 69.673359 
L 207.808696 65.283643 
L 216.156522 60.893928 
L 224.504348 56.504212 
L 232.852174 52.114497 
L 241.2 47.724781 
" style="fill:none;stroke:#ff0000;stroke-opacity:0.821429;stroke-width:1.5;"/>
   </g>
   <g id="LineCollection_19">
    <path clip-path="url(#pe5896f6fc3)" d="M 49.2 111.600022 
L 57.547826 115.989737 
L 65.895652 118.722881 
L 74.243478 120.341904 
L 82.591304 121.129127 
L 90.93913 119.752463 
L 99.286957 118.293767 
L 107.634783 114.526499 
L 115.982609 110.136783 
L 124.330435 105.747068 
L 132.678261 101.357352 
L 141.026087 96.967637 
L 149.373913 92.577921 
L 157.721739 88.188206 
L 166.069565 83.79849 
L 174.417391 79.408775 
L 182.765217 75.01906 
L 191.113043 70.629344 
L 199.46087 66.239629 
L 207.808696 61.849913 
L 216.156522 57.460198 
L 224.504348 53.070482 
L 232.852174 48.680767 
L 241.2 44.291051 
" style="fill:none;stroke:#ff0000;stroke-opacity:0.785714;stroke-width:1.5;"/>
   </g>
   <g id="LineCollection_20">
    <path clip-path="url(#pe5896f6fc3)" d="M 49.2 109.008139 
L 57.547826 113.397854 
L 65.895652 117.232344 
L 74.243478 119.080757 
L 82.591304 119.734093 
L 90.93913 118.878665 
L 99.286957 116.324331 
L 107.634783 111.934615 
L 115.982609 107.5449 
L 124.330435 103.155185 
L 132.678261 98.765469 
L 141.026087 94.375754 
L 149.373913 89.986038 
L 157.721739 85.596323 
L 166.069565 81.206607 
L 174.417391 76.816892 
L 182.765217 72.427176 
L 191.113043 68.037461 
L 199.46087 63.647746 
L 207.808696 59.25803 
L 216.156522 54.868315 
L 224.504348 50.478599 
L 232.852174 46.088884 
L 241.2 41.699168 
" style="fill:none;stroke:#ff0000;stroke-opacity:0.75;stroke-width:1.5;"/>
   </g>
   <g id="LineCollection_21">
    <path clip-path="url(#pe5896f6fc3)" d="M 49.2 107.172757 
L 57.547826 111.562473 
L 65.895652 115.952188 
L 74.243478 117.73859 
L 82.591304 118.085709 
L 90.93913 117.37727 
L 99.286957 114.48895 
L 107.634783 110.099234 
L 115.982609 105.709519 
L 124.330435 101.319804 
L 132.678261 96.930088 
L 141.026087 92.540373 
L 149.373913 88.150657 
L 157.721739 83.760942 
L 166.069565 79.371226 
L 174.417391 74.981511 
L 182.765217 70.591795 
L 191.113043 66.20208 
L 199.46087 61.812365 
L 207.808696 57.422649 
L 216.156522 53.032934 
L 224.504348 48.643218 
L 232.852174 44.253503 
L 241.2 39.863787 
" style="fill:none;stroke:#ff0000;stroke-opacity:0.714286;stroke-width:1.5;"/>
   </g>
   <g id="LineCollection_22">
    <path clip-path="url(#pe5896f6fc3)" d="M 49.2 105.483903 
L 57.547826 109.873618 
L 65.895652 114.263334 
L 74.243478 116.155319 
L 82.591304 116.465024 
L 90.93913 115.753816 
L 99.286957 112.800095 
L 107.634783 108.41038 
L 115.982609 104.020664 
L 124.330435 99.630949 
L 132.678261 95.241234 
L 141.026087 90.851518 
L 149.373913 86.461803 
L 157.721739 82.072087 
L 166.069565 77.682372 
L 174.417391 73.292656 
L 182.765217 68.902941 
L 191.113043 64.513225 
L 199.46087 60.12351 
L 207.808696 55.733795 
L 216.156522 51.344079 
L 224.504348 46.954364 
L 232.852174 42.564648 
L 241.2 38.174933 
" style="fill:none;stroke:#ff0000;stroke-opacity:0.678571;stroke-width:1.5;"/>
   </g>
   <g id="LineCollection_23">
    <path clip-path="url(#pe5896f6fc3)" d="M 49.2 102.904036 
L 57.547826 107.293751 
L 65.895652 111.683467 
L 74.243478 114.284197 
L 82.591304 114.566286 
L 90.93913 113.881139 
L 99.286957 110.220228 
L 107.634783 105.830513 
L 115.982609 101.440797 
L 124.330435 97.051082 
L 132.678261 92.661367 
L 141.026087 88.271651 
L 149.373913 83.881936 
L 157.721739 79.49222 
L 166.069565 75.102505 
L 174.417391 70.712789 
L 182.765217 66.323074 
L 191.113043 61.933358 
L 199.46087 57.543643 
L 207.808696 53.153928 
L 216.156522 48.764212 
L 224.504348 44.374497 
L 232.852174 39.984781 
L 241.2 35.595066 
" style="fill:none;stroke:#ff0000;stroke-opacity:0.642857;stroke-width:1.5;"/>
   </g>
   <g id="LineCollection_24">
    <path clip-path="url(#pe5896f6fc3)" d="M 49.2 99.874822 
L 57.547826 104.264537 
L 65.895652 108.654253 
L 74.243478 112.195776 
L 82.591304 112.54246 
L 90.93913 111.580729 
L 99.286957 107.191014 
L 107.634783 102.801299 
L 115.982609 98.411583 
L 124.330435 94.021868 
L 132.678261 89.632152 
L 141.026087 85.242437 
L 149.373913 80.852721 
L 157.721739 76.463006 
L 166.069565 72.073291 
L 174.417391 67.683575 
L 182.765217 63.29386 
L 191.113043 58.904144 
L 199.46087 54.514429 
L 207.808696 50.124713 
L 216.156522 45.734998 
L 224.504348 41.345282 
L 232.852174 36.955567 
L 241.2 32.565852 
" style="fill:none;stroke:#ff0000;stroke-opacity:0.607143;stroke-width:1.5;"/>
   </g>
   <g id="LineCollection_25">
    <path clip-path="url(#pe5896f6fc3)" d="M 49.2 95.717381 
L 57.547826 100.107096 
L 65.895652 104.496812 
L 74.243478 108.886527 
L 82.591304 110.011342 
L 90.93913 107.423289 
L 99.286957 103.033573 
L 107.634783 98.643858 
L 115.982609 94.254143 
L 124.330435 89.864427 
L 132.678261 85.474712 
L 141.026087 81.084996 
L 149.373913 76.695281 
L 157.721739 72.305565 
L 166.069565 67.91585 
L 174.417391 63.526134 
L 182.765217 59.136419 
L 191.113043 54.746704 
L 199.46087 50.356988 
L 207.808696 45.967273 
L 216.156522 41.577557 
L 224.504348 37.187842 
L 232.852174 32.798126 
L 241.2 28.408411 
" style="fill:none;stroke:#ff0000;stroke-opacity:0.571429;stroke-width:1.5;"/>
   </g>
   <g id="LineCollection_26">
    <path clip-path="url(#pe5896f6fc3)" d="M 49.2 90.50897 
L 57.547826 94.898686 
L 65.895652 99.288401 
L 74.243478 103.678116 
L 82.591304 106.604593 
L 90.93913 102.214878 
L 99.286957 97.825163 
L 107.634783 93.435447 
L 115.982609 89.045732 
L 124.330435 84.656016 
L 132.678261 80.266301 
L 141.026087 75.876585 
L 149.373913 71.48687 
L 157.721739 67.097154 
L 166.069565 62.707439 
L 174.417391 58.317724 
L 182.765217 53.928008 
L 191.113043 49.538293 
L 199.46087 45.148577 
L 207.808696 40.758862 
L 216.156522 36.369146 
L 224.504348 31.979431 
L 232.852174 27.589715 
L 241.2 23.2 
" style="fill:none;stroke:#ff0000;stroke-opacity:0.535714;stroke-width:1.5;"/>
   </g>
  </g>
 </g>
 <defs>
  <clipPath id="pe5896f6fc3">
   <rect height="201.6" width="201.6" x="49.2" y="23.2"/>
  </clipPath>
 </defs>
</svg>
