<?xml version="1.0" encoding="utf-8" standalone="no"?>
<!DOCTYPE svg PUBLIC "-//W3C//DTD SVG 1.1//EN"
  "http://www.w3.org/Graphics/SVG/1.1/DTD/svg11.dtd">
<!-- Created with matplotlib (https://matplotlib.org/) -->
<svg height="250.5pt" version="1.1" viewBox="0 0 261.5 250.5" width="261.5pt" xmlns="http://www.w3.org/2000/svg" xmlns:xlink="http://www.w3.org/1999/xlink">
 <defs>
  <style type="text/css">
*{stroke-linecap:butt;stroke-linejoin:round;}
  </style>
 </defs>
 <g id="figure_1">
  <g id="patch_1">
   <path d="M 0 250.5 
L 261.5 250.5 
L 261.5 0 
L 0 0 
z
" style="fill:#ffffff;"/>
  </g>
  <g id="axes_1">
   <g id="patch_2">
    <path d="M 49.2 212.3 
L 250.8 212.3 
L 250.8 10.7 
L 49.2 10.7 
z
" style="fill:#ffffff;"/>
   </g>
   <g id="LineCollection_1">
    <path clip-path="url(#p8f6828ac1c)" d="M 49.2 178.630521 
L 69.36 181.997469 
L 89.52 185.364417 
L 109.68 188.731364 
L 129.84 192.098312 
L 150 195.46526 
L 170.16 198.832208 
L 190.32 202.199156 
L 210.48 205.566104 
L 230.64 208.933052 
L 250.8 212.3 
" style="fill:none;stroke:#30a2da;stroke-width:1.5;"/>
   </g>
   <g id="LineCollection_2">
    <path clip-path="url(#p8f6828ac1c)" d="M 49.2 157.079695 
L 69.36 157.478309 
L 89.52 158.100527 
L 109.68 158.876883 
L 129.84 160.201219 
L 150 162.004219 
L 170.16 165.371167 
L 190.32 168.738115 
L 210.48 172.105063 
L 230.64 175.472011 
L 250.8 178.838959 
" style="fill:none;stroke:#fc4f30;stroke-width:1.5;"/>
   </g>
   <g id="matplotlib.axis_1">
    <g id="xtick_1">
     <g id="line2d_1">
      <defs>
       <path d="M 0 0 
L 0 3.5 
" id="m2dea5f4905" style="stroke:#000000;stroke-width:0.8;"/>
      </defs>
      <g>
       <use style="stroke:#000000;stroke-width:0.8;" x="49.2" xlink:href="#m2dea5f4905" y="212.3"/>
      </g>
     </g>
     <g id="text_1">
      <!-- 0 -->
      <defs>
       <path d="M 31.78125 66.40625 
Q 24.171875 66.40625 20.328125 58.90625 
Q 16.5 51.421875 16.5 36.375 
Q 16.5 21.390625 20.328125 13.890625 
Q 24.171875 6.390625 31.78125 6.390625 
Q 39.453125 6.390625 43.28125 13.890625 
Q 47.125 21.390625 47.125 36.375 
Q 47.125 51.421875 43.28125 58.90625 
Q 39.453125 66.40625 31.78125 66.40625 
z
M 31.78125 74.21875 
Q 44.046875 74.21875 50.515625 64.515625 
Q 56.984375 54.828125 56.984375 36.375 
Q 56.984375 17.96875 50.515625 8.265625 
Q 44.046875 -1.421875 31.78125 -1.421875 
Q 19.53125 -1.421875 13.0625 8.265625 
Q 6.59375 17.96875 6.59375 36.375 
Q 6.59375 54.828125 13.0625 64.515625 
Q 19.53125 74.21875 31.78125 74.21875 
z
" id="DejaVuSans-48"/>
      </defs>
      <g transform="translate(46.01875 226.898437)scale(0.1 -0.1)">
       <use xlink:href="#DejaVuSans-48"/>
      </g>
     </g>
    </g>
    <g id="xtick_2">
     <g id="line2d_2">
      <g>
       <use style="stroke:#000000;stroke-width:0.8;" x="99.6" xlink:href="#m2dea5f4905" y="212.3"/>
      </g>
     </g>
     <g id="text_2">
      <!-- 1 -->
      <defs>
       <path d="M 12.40625 8.296875 
L 28.515625 8.296875 
L 28.515625 63.921875 
L 10.984375 60.40625 
L 10.984375 69.390625 
L 28.421875 72.90625 
L 38.28125 72.90625 
L 38.28125 8.296875 
L 54.390625 8.296875 
L 54.390625 0 
L 12.40625 0 
z
" id="DejaVuSans-49"/>
      </defs>
      <g transform="translate(96.41875 226.898437)scale(0.1 -0.1)">
       <use xlink:href="#DejaVuSans-49"/>
      </g>
     </g>
    </g>
    <g id="xtick_3">
     <g id="line2d_3">
      <g>
       <use style="stroke:#000000;stroke-width:0.8;" x="150" xlink:href="#m2dea5f4905" y="212.3"/>
      </g>
     </g>
     <g id="text_3">
      <!-- 2 -->
      <defs>
       <path d="M 19.1875 8.296875 
L 53.609375 8.296875 
L 53.609375 0 
L 7.328125 0 
L 7.328125 8.296875 
Q 12.9375 14.109375 22.625 23.890625 
Q 32.328125 33.6875 34.8125 36.53125 
Q 39.546875 41.84375 41.421875 45.53125 
Q 43.3125 49.21875 43.3125 52.78125 
Q 43.3125 58.59375 39.234375 62.25 
Q 35.15625 65.921875 28.609375 65.921875 
Q 23.96875 65.921875 18.8125 64.3125 
Q 13.671875 62.703125 7.8125 59.421875 
L 7.8125 69.390625 
Q 13.765625 71.78125 18.9375 73 
Q 24.125 74.21875 28.421875 74.21875 
Q 39.75 74.21875 46.484375 68.546875 
Q 53.21875 62.890625 53.21875 53.421875 
Q 53.21875 48.921875 51.53125 44.890625 
Q 49.859375 40.875 45.40625 35.40625 
Q 44.1875 33.984375 37.640625 27.21875 
Q 31.109375 20.453125 19.1875 8.296875 
z
" id="DejaVuSans-50"/>
      </defs>
      <g transform="translate(146.81875 226.898437)scale(0.1 -0.1)">
       <use xlink:href="#DejaVuSans-50"/>
      </g>
     </g>
    </g>
    <g id="xtick_4">
     <g id="line2d_4">
      <g>
       <use style="stroke:#000000;stroke-width:0.8;" x="200.4" xlink:href="#m2dea5f4905" y="212.3"/>
      </g>
     </g>
     <g id="text_4">
      <!-- 3 -->
      <defs>
       <path d="M 40.578125 39.3125 
Q 47.65625 37.796875 51.625 33 
Q 55.609375 28.21875 55.609375 21.1875 
Q 55.609375 10.40625 48.1875 4.484375 
Q 40.765625 -1.421875 27.09375 -1.421875 
Q 22.515625 -1.421875 17.65625 -0.515625 
Q 12.796875 0.390625 7.625 2.203125 
L 7.625 11.71875 
Q 11.71875 9.328125 16.59375 8.109375 
Q 21.484375 6.890625 26.8125 6.890625 
Q 36.078125 6.890625 40.9375 10.546875 
Q 45.796875 14.203125 45.796875 21.1875 
Q 45.796875 27.640625 41.28125 31.265625 
Q 36.765625 34.90625 28.71875 34.90625 
L 20.21875 34.90625 
L 20.21875 43.015625 
L 29.109375 43.015625 
Q 36.375 43.015625 40.234375 45.921875 
Q 44.09375 48.828125 44.09375 54.296875 
Q 44.09375 59.90625 40.109375 62.90625 
Q 36.140625 65.921875 28.71875 65.921875 
Q 24.65625 65.921875 20.015625 65.03125 
Q 15.375 64.15625 9.8125 62.3125 
L 9.8125 71.09375 
Q 15.4375 72.65625 20.34375 73.4375 
Q 25.25 74.21875 29.59375 74.21875 
Q 40.828125 74.21875 47.359375 69.109375 
Q 53.90625 64.015625 53.90625 55.328125 
Q 53.90625 49.265625 50.4375 45.09375 
Q 46.96875 40.921875 40.578125 39.3125 
z
" id="DejaVuSans-51"/>
      </defs>
      <g transform="translate(197.21875 226.898437)scale(0.1 -0.1)">
       <use xlink:href="#DejaVuSans-51"/>
      </g>
     </g>
    </g>
    <g id="xtick_5">
     <g id="line2d_5">
      <g>
       <use style="stroke:#000000;stroke-width:0.8;" x="250.8" xlink:href="#m2dea5f4905" y="212.3"/>
      </g>
     </g>
     <g id="text_5">
      <!-- 4 -->
      <defs>
       <path d="M 37.796875 64.3125 
L 12.890625 25.390625 
L 37.796875 25.390625 
z
M 35.203125 72.90625 
L 47.609375 72.90625 
L 47.609375 25.390625 
L 58.015625 25.390625 
L 58.015625 17.1875 
L 47.609375 17.1875 
L 47.609375 0 
L 37.796875 0 
L 37.796875 17.1875 
L 4.890625 17.1875 
L 4.890625 26.703125 
z
" id="DejaVuSans-52"/>
      </defs>
      <g transform="translate(247.61875 226.898437)scale(0.1 -0.1)">
       <use xlink:href="#DejaVuSans-52"/>
      </g>
     </g>
    </g>
    <g id="text_6">
     <!-- j -->
     <defs>
      <path d="M 9.421875 54.6875 
L 18.40625 54.6875 
L 18.40625 -0.984375 
Q 18.40625 -11.421875 14.421875 -16.109375 
Q 10.453125 -20.796875 1.609375 -20.796875 
L -1.8125 -20.796875 
L -1.8125 -13.1875 
L 0.59375 -13.1875 
Q 5.71875 -13.1875 7.5625 -10.8125 
Q 9.421875 -8.453125 9.421875 -0.984375 
z
M 9.421875 75.984375 
L 18.40625 75.984375 
L 18.40625 64.59375 
L 9.421875 64.59375 
z
" id="DejaVuSans-106"/>
     </defs>
     <g transform="translate(148.610938 240.576562)scale(0.1 -0.1)">
      <use xlink:href="#DejaVuSans-106"/>
     </g>
    </g>
   </g>
   <g id="matplotlib.axis_2">
    <g id="ytick_1">
     <g id="line2d_6">
      <defs>
       <path d="M 0 0 
L -3.5 0 
" id="m4e9a06fc0a" style="stroke:#000000;stroke-width:0.8;"/>
      </defs>
      <g>
       <use style="stroke:#000000;stroke-width:0.8;" x="49.2" xlink:href="#m4e9a06fc0a" y="195.673698"/>
      </g>
     </g>
     <g id="text_7">
      <!-- −10 -->
      <defs>
       <path d="M 10.59375 35.5 
L 73.1875 35.5 
L 73.1875 27.203125 
L 10.59375 27.203125 
z
" id="DejaVuSans-8722"/>
      </defs>
      <g transform="translate(21.095313 199.472917)scale(0.1 -0.1)">
       <use xlink:href="#DejaVuSans-8722"/>
       <use x="83.789062" xlink:href="#DejaVuSans-49"/>
       <use x="147.412109" xlink:href="#DejaVuSans-48"/>
      </g>
     </g>
    </g>
    <g id="ytick_2">
     <g id="line2d_7">
      <g>
       <use style="stroke:#000000;stroke-width:0.8;" x="49.2" xlink:href="#m4e9a06fc0a" y="153.586849"/>
      </g>
     </g>
     <g id="text_8">
      <!-- −5 -->
      <defs>
       <path d="M 10.796875 72.90625 
L 49.515625 72.90625 
L 49.515625 64.59375 
L 19.828125 64.59375 
L 19.828125 46.734375 
Q 21.96875 47.46875 24.109375 47.828125 
Q 26.265625 48.1875 28.421875 48.1875 
Q 40.625 48.1875 47.75 41.5 
Q 54.890625 34.8125 54.890625 23.390625 
Q 54.890625 11.625 47.5625 5.09375 
Q 40.234375 -1.421875 26.90625 -1.421875 
Q 22.3125 -1.421875 17.546875 -0.640625 
Q 12.796875 0.140625 7.71875 1.703125 
L 7.71875 11.625 
Q 12.109375 9.234375 16.796875 8.0625 
Q 21.484375 6.890625 26.703125 6.890625 
Q 35.15625 6.890625 40.078125 11.328125 
Q 45.015625 15.765625 45.015625 23.390625 
Q 45.015625 31 40.078125 35.4375 
Q 35.15625 39.890625 26.703125 39.890625 
Q 22.75 39.890625 18.8125 39.015625 
Q 14.890625 38.140625 10.796875 36.28125 
z
" id="DejaVuSans-53"/>
      </defs>
      <g transform="translate(27.457813 157.386068)scale(0.1 -0.1)">
       <use xlink:href="#DejaVuSans-8722"/>
       <use x="83.789062" xlink:href="#DejaVuSans-53"/>
      </g>
     </g>
    </g>
    <g id="ytick_3">
     <g id="line2d_8">
      <g>
       <use style="stroke:#000000;stroke-width:0.8;" x="49.2" xlink:href="#m4e9a06fc0a" y="111.5"/>
      </g>
     </g>
     <g id="text_9">
      <!-- 0 -->
      <g transform="translate(35.8375 115.299219)scale(0.1 -0.1)">
       <use xlink:href="#DejaVuSans-48"/>
      </g>
     </g>
    </g>
    <g id="ytick_4">
     <g id="line2d_9">
      <g>
       <use style="stroke:#000000;stroke-width:0.8;" x="49.2" xlink:href="#m4e9a06fc0a" y="69.413151"/>
      </g>
     </g>
     <g id="text_10">
      <!-- 5 -->
      <g transform="translate(35.8375 73.21237)scale(0.1 -0.1)">
       <use xlink:href="#DejaVuSans-53"/>
      </g>
     </g>
    </g>
    <g id="ytick_5">
     <g id="line2d_10">
      <g>
       <use style="stroke:#000000;stroke-width:0.8;" x="49.2" xlink:href="#m4e9a06fc0a" y="27.326302"/>
      </g>
     </g>
     <g id="text_11">
      <!-- 10 -->
      <g transform="translate(29.475 31.12552)scale(0.1 -0.1)">
       <use xlink:href="#DejaVuSans-49"/>
       <use x="63.623047" xlink:href="#DejaVuSans-48"/>
      </g>
     </g>
    </g>
    <g id="text_12">
     <!-- $\epsilon$ -->
     <defs>
      <path d="M 19.734375 29.5 
Q 14.453125 30.671875 12.15625 33.84375 
Q 10.453125 36.078125 10.453125 39.109375 
Q 10.453125 47.40625 18.359375 52.25 
Q 24.609375 56.0625 34.1875 56.0625 
Q 37.890625 56.0625 41.9375 55.46875 
Q 46 54.890625 50.53125 53.71875 
L 48.96875 45.5625 
Q 44.484375 46.96875 40.71875 47.609375 
Q 36.859375 48.25 33.40625 48.25 
Q 27.59375 48.25 23.78125 46 
Q 19.1875 43.3125 19.1875 39.40625 
Q 19.1875 36.8125 21.578125 35.015625 
Q 24.421875 32.859375 30.078125 32.859375 
L 37.640625 32.859375 
L 36.234375 25.4375 
L 29 25.4375 
Q 22.265625 25.4375 18.3125 22.953125 
Q 12.9375 19.578125 12.9375 14.3125 
Q 12.9375 10.984375 15.828125 8.796875 
Q 19.4375 6.0625 26.8125 6.0625 
Q 31.34375 6.0625 35.6875 6.9375 
Q 40.046875 7.859375 43.84375 9.671875 
L 42.1875 1.3125 
Q 37.546875 -0.046875 33.296875 -0.734375 
Q 29.046875 -1.421875 25.140625 -1.421875 
Q 13.53125 -1.421875 8.0625 3.03125 
Q 3.90625 6.453125 3.90625 12.203125 
Q 3.90625 19.96875 9.375 24.75 
Q 13.421875 28.328125 19.734375 29.5 
z
" id="DejaVuSans-Oblique-949"/>
     </defs>
     <g transform="translate(15.015625 114.25)rotate(-90)scale(0.1 -0.1)">
      <use transform="translate(0 0.9375)" xlink:href="#DejaVuSans-Oblique-949"/>
     </g>
    </g>
   </g>
   <g id="LineCollection_3">
    <path clip-path="url(#p8f6828ac1c)" d="M 49.2 145.169479 
L 69.36 145.409091 
L 89.52 145.567875 
L 109.68 145.565793 
L 129.84 145.483254 
L 150 145.682691 
L 170.16 145.572136 
L 190.32 145.759861 
L 210.48 145.832254 
L 230.64 145.89054 
L 250.8 146.921374 
" style="fill:none;stroke:#e5ae38;stroke-width:1.5;"/>
   </g>
   <g id="patch_3">
    <path d="M 49.2 212.3 
L 49.2 10.7 
" style="fill:none;stroke:#000000;stroke-linecap:square;stroke-linejoin:miter;stroke-width:0.8;"/>
   </g>
   <g id="patch_4">
    <path d="M 49.2 212.3 
L 250.8 212.3 
" style="fill:none;stroke:#000000;stroke-linecap:square;stroke-linejoin:miter;stroke-width:0.8;"/>
   </g>
   <g id="LineCollection_4">
    <path clip-path="url(#p8f6828ac1c)" d="M 49.2 133.778924 
L 69.36 133.796639 
L 89.52 133.211295 
L 109.68 132.132568 
L 129.84 130.775676 
L 150 128.33474 
L 170.16 126.901604 
L 190.32 125.628394 
L 210.48 124.649257 
L 230.64 124.014199 
L 250.8 124.100363 
" style="fill:none;stroke:#6d904f;stroke-width:1.5;"/>
   </g>
   <g id="LineCollection_5">
    <path clip-path="url(#p8f6828ac1c)" d="M 49.2 113.251895 
L 69.36 112.836805 
L 89.52 112.962528 
L 109.68 112.505307 
L 129.84 112.627796 
L 150 112.445096 
L 170.16 112.367429 
L 190.32 112.218766 
L 210.48 112.059497 
L 230.64 112.115996 
L 250.8 111.5 
" style="fill:none;stroke:#8b8b8b;stroke-width:1.5;"/>
   </g>
   <g id="LineCollection_6">
    <path clip-path="url(#p8f6828ac1c)" d="M 49.2 112.952514 
L 69.36 112.803277 
L 89.52 112.426011 
L 109.68 112.401642 
L 129.84 112.498122 
L 150 112.428797 
L 170.16 112.248666 
L 190.32 112.212273 
L 210.48 112.036744 
L 230.64 112.108314 
L 250.8 111.5 
" style="fill:none;stroke:#17becf;stroke-width:1.5;"/>
   </g>
   <g id="LineCollection_7">
    <path clip-path="url(#p8f6828ac1c)" d="M 49.2 112.952514 
L 69.36 112.428683 
L 89.52 112.318407 
L 109.68 112.332017 
L 129.84 112.466858 
L 150 112.263352 
L 170.16 112.187209 
L 190.32 112.183883 
L 210.48 111.969869 
L 230.64 111.965235 
L 250.8 111.5 
" style="fill:none;stroke:#9467bd;stroke-width:1.5;"/>
   </g>
   <g id="LineCollection_8">
    <path clip-path="url(#p8f6828ac1c)" d="M 49.2 112.952514 
L 69.36 112.420329 
L 89.52 112.245589 
L 109.68 112.330574 
L 129.84 112.450902 
L 150 112.248855 
L 170.16 112.174457 
L 190.32 112.119681 
L 210.48 111.913751 
L 230.64 111.965235 
L 250.8 111.5 
" style="fill:none;stroke:#d62728;stroke-width:1.5;"/>
   </g>
   <g id="LineCollection_9">
    <path clip-path="url(#p8f6828ac1c)" d="M 49.2 112.952514 
L 69.36 112.420329 
L 89.52 112.216533 
L 109.68 112.330574 
L 129.84 112.330689 
L 150 112.248855 
L 170.16 112.174457 
L 190.32 112.119681 
L 210.48 111.902357 
L 230.64 111.909024 
L 250.8 111.5 
" style="fill:none;stroke:#1f77b4;stroke-width:1.5;"/>
   </g>
   <g id="LineCollection_10">
    <path clip-path="url(#p8f6828ac1c)" d="M 49.2 112.590457 
L 69.36 112.365573 
L 89.52 112.196857 
L 109.68 112.200634 
L 129.84 112.330689 
L 150 112.135182 
L 170.16 112.043955 
L 190.32 112.065586 
L 210.48 111.902357 
L 230.64 111.902662 
L 250.8 111.5 
" style="fill:none;stroke:#e377c2;stroke-width:1.5;"/>
   </g>
   <g id="LineCollection_11">
    <path clip-path="url(#p8f6828ac1c)" d="M 49.2 112.590457 
L 69.36 112.361314 
L 89.52 112.196857 
L 109.68 112.180889 
L 129.84 111.990793 
L 150 112.070977 
L 170.16 111.861838 
L 190.32 111.9595 
L 210.48 111.900233 
L 230.64 111.87271 
L 250.8 111.5 
" style="fill:none;stroke:#8c564b;stroke-width:1.5;"/>
   </g>
   <g id="LineCollection_12">
    <path clip-path="url(#p8f6828ac1c)" d="M 49.2 112.447465 
L 69.36 112.361098 
L 89.52 112.162775 
L 109.68 112.127296 
L 129.84 111.936307 
L 150 112.065666 
L 170.16 111.813774 
L 190.32 111.896313 
L 210.48 111.898632 
L 230.64 111.804187 
L 250.8 111.5 
" style="fill:none;stroke:#bcbd22;stroke-width:1.5;"/>
   </g>
   <g id="LineCollection_13">
    <path clip-path="url(#p8f6828ac1c)" d="M 49.2 112.447465 
L 69.36 112.221061 
L 89.52 112.162775 
L 109.68 112.090382 
L 129.84 111.902657 
L 150 112.013211 
L 170.16 111.813774 
L 190.32 111.896313 
L 210.48 111.898395 
L 230.64 111.739612 
L 250.8 111.5 
" style="fill:none;stroke:#30a2da;stroke-width:1.5;"/>
   </g>
   <g id="LineCollection_14">
    <path clip-path="url(#p8f6828ac1c)" d="M 49.2 112.442592 
L 69.36 112.150156 
L 89.52 112.064621 
L 109.68 111.930881 
L 129.84 111.871276 
L 150 111.97222 
L 170.16 111.798736 
L 190.32 111.768549 
L 210.48 111.898395 
L 230.64 111.707872 
L 250.8 111.5 
" style="fill:none;stroke:#fc4f30;stroke-width:1.5;"/>
   </g>
   <g id="LineCollection_15">
    <path clip-path="url(#p8f6828ac1c)" d="M 49.2 112.442592 
L 69.36 112.150156 
L 89.52 112.064621 
L 109.68 111.930881 
L 129.84 111.871276 
L 150 111.97222 
L 170.16 111.795746 
L 190.32 111.704058 
L 210.48 111.718085 
L 230.64 111.682858 
L 250.8 111.5 
" style="fill:none;stroke:#e5ae38;stroke-width:1.5;"/>
   </g>
   <g id="LineCollection_16">
    <path clip-path="url(#p8f6828ac1c)" d="M 49.2 112.027821 
L 69.36 111.758586 
L 89.52 111.993613 
L 109.68 111.880525 
L 129.84 111.818534 
L 150 111.940919 
L 170.16 111.795746 
L 190.32 111.704058 
L 210.48 111.622264 
L 230.64 111.682858 
L 250.8 111.5 
" style="fill:none;stroke:#6d904f;stroke-width:1.5;"/>
   </g>
   <g id="LineCollection_17">
    <path clip-path="url(#p8f6828ac1c)" d="M 49.2 112.027821 
L 69.36 111.758586 
L 89.52 111.879515 
L 109.68 111.85461 
L 129.84 111.818534 
L 150 111.913961 
L 170.16 111.756957 
L 190.32 111.659174 
L 210.48 111.609391 
L 230.64 111.62755 
L 250.8 111.5 
" style="fill:none;stroke:#8b8b8b;stroke-width:1.5;"/>
   </g>
   <g id="LineCollection_18">
    <path clip-path="url(#p8f6828ac1c)" d="M 49.2 112.027821 
L 69.36 111.638341 
L 89.52 111.869305 
L 109.68 111.768297 
L 129.84 111.744838 
L 150 111.773237 
L 170.16 111.728294 
L 190.32 111.647134 
L 210.48 111.579471 
L 230.64 111.62755 
L 250.8 111.5 
" style="fill:none;stroke:#17becf;stroke-width:1.5;"/>
   </g>
   <g id="LineCollection_19">
    <path clip-path="url(#p8f6828ac1c)" d="M 49.2 112.027821 
L 69.36 111.561468 
L 89.52 111.835993 
L 109.68 111.768297 
L 129.84 111.693884 
L 150 111.584587 
L 170.16 111.56391 
L 190.32 111.569465 
L 210.48 111.579471 
L 230.64 111.534378 
L 250.8 111.5 
" style="fill:none;stroke:#9467bd;stroke-width:1.5;"/>
   </g>
   <g id="LineCollection_20">
    <path clip-path="url(#p8f6828ac1c)" d="M 49.2 111.708438 
L 69.36 111.519667 
L 89.52 111.833342 
L 109.68 111.664504 
L 129.84 111.563487 
L 150 111.584587 
L 170.16 111.532057 
L 190.32 111.559151 
L 210.48 111.510362 
L 230.64 111.515769 
L 250.8 111.5 
" style="fill:none;stroke:#d62728;stroke-width:1.5;"/>
   </g>
   <g id="LineCollection_21">
    <path clip-path="url(#p8f6828ac1c)" d="M 49.2 111.708438 
L 69.36 111.519667 
L 89.52 111.743971 
L 109.68 111.619583 
L 129.84 111.512695 
L 150 111.57125 
L 170.16 111.532057 
L 190.32 111.555591 
L 210.48 111.50918 
L 230.64 111.508566 
L 250.8 111.5 
" style="fill:none;stroke:#1f77b4;stroke-width:1.5;"/>
   </g>
   <g id="LineCollection_22">
    <path clip-path="url(#p8f6828ac1c)" d="M 49.2 111.291562 
L 69.36 111.480333 
L 89.52 111.256029 
L 109.68 111.380417 
L 129.84 111.487305 
L 150 111.42875 
L 170.16 111.467943 
L 190.32 111.444409 
L 210.48 111.49082 
L 230.64 111.491434 
L 250.8 111.5 
" style="fill:none;stroke:#e377c2;stroke-width:1.5;"/>
   </g>
   <g id="LineCollection_23">
    <path clip-path="url(#p8f6828ac1c)" d="M 49.2 111.291562 
L 69.36 111.480333 
L 89.52 111.166658 
L 109.68 111.335496 
L 129.84 111.436513 
L 150 111.415413 
L 170.16 111.467943 
L 190.32 111.440849 
L 210.48 111.489638 
L 230.64 111.484231 
L 250.8 111.5 
" style="fill:none;stroke:#8c564b;stroke-width:1.5;"/>
   </g>
   <g id="LineCollection_24">
    <path clip-path="url(#p8f6828ac1c)" d="M 49.2 110.972179 
L 69.36 111.438532 
L 89.52 111.164007 
L 109.68 111.231703 
L 129.84 111.306116 
L 150 111.415413 
L 170.16 111.43609 
L 190.32 111.430535 
L 210.48 111.420529 
L 230.64 111.465622 
L 250.8 111.5 
" style="fill:none;stroke:#bcbd22;stroke-width:1.5;"/>
   </g>
   <g id="LineCollection_25">
    <path clip-path="url(#p8f6828ac1c)" d="M 49.2 110.972179 
L 69.36 111.361659 
L 89.52 111.130695 
L 109.68 111.231703 
L 129.84 111.255162 
L 150 111.226763 
L 170.16 111.271706 
L 190.32 111.352866 
L 210.48 111.420529 
L 230.64 111.37245 
L 250.8 111.5 
" style="fill:none;stroke:#30a2da;stroke-width:1.5;"/>
   </g>
   <g id="LineCollection_26">
    <path clip-path="url(#p8f6828ac1c)" d="M 49.2 110.972179 
L 69.36 111.241414 
L 89.52 111.120485 
L 109.68 111.14539 
L 129.84 111.181466 
L 150 111.086039 
L 170.16 111.243043 
L 190.32 111.340826 
L 210.48 111.390609 
L 230.64 111.37245 
L 250.8 111.5 
" style="fill:none;stroke:#fc4f30;stroke-width:1.5;"/>
   </g>
   <g id="LineCollection_27">
    <path clip-path="url(#p8f6828ac1c)" d="M 49.2 110.972179 
L 69.36 111.241414 
L 89.52 111.006387 
L 109.68 111.119475 
L 129.84 111.181466 
L 150 111.059081 
L 170.16 111.204254 
L 190.32 111.295942 
L 210.48 111.377736 
L 230.64 111.317142 
L 250.8 111.5 
" style="fill:none;stroke:#e5ae38;stroke-width:1.5;"/>
   </g>
   <g id="LineCollection_28">
    <path clip-path="url(#p8f6828ac1c)" d="M 49.2 110.557408 
L 69.36 110.849844 
L 89.52 110.935379 
L 109.68 111.069119 
L 129.84 111.128724 
L 150 111.02778 
L 170.16 111.204254 
L 190.32 111.295942 
L 210.48 111.281915 
L 230.64 111.317142 
L 250.8 111.5 
" style="fill:none;stroke:#6d904f;stroke-width:1.5;"/>
   </g>
   <g id="LineCollection_29">
    <path clip-path="url(#p8f6828ac1c)" d="M 49.2 110.557408 
L 69.36 110.849844 
L 89.52 110.935379 
L 109.68 111.069119 
L 129.84 111.128724 
L 150 111.02778 
L 170.16 111.201264 
L 190.32 111.231451 
L 210.48 111.101605 
L 230.64 111.292128 
L 250.8 111.5 
" style="fill:none;stroke:#8b8b8b;stroke-width:1.5;"/>
   </g>
   <g id="LineCollection_30">
    <path clip-path="url(#p8f6828ac1c)" d="M 49.2 110.552535 
L 69.36 110.778939 
L 89.52 110.837225 
L 109.68 110.909618 
L 129.84 111.097343 
L 150 110.986789 
L 170.16 111.186226 
L 190.32 111.103687 
L 210.48 111.101605 
L 230.64 111.260388 
L 250.8 111.5 
" style="fill:none;stroke:#17becf;stroke-width:1.5;"/>
   </g>
   <g id="LineCollection_31">
    <path clip-path="url(#p8f6828ac1c)" d="M 49.2 110.552535 
L 69.36 110.638902 
L 89.52 110.837225 
L 109.68 110.872704 
L 129.84 111.063693 
L 150 110.934334 
L 170.16 111.186226 
L 190.32 111.103687 
L 210.48 111.101368 
L 230.64 111.195813 
L 250.8 111.5 
" style="fill:none;stroke:#9467bd;stroke-width:1.5;"/>
   </g>
   <g id="LineCollection_32">
    <path clip-path="url(#p8f6828ac1c)" d="M 49.2 110.409543 
L 69.36 110.638686 
L 89.52 110.803143 
L 109.68 110.819111 
L 129.84 111.009207 
L 150 110.929023 
L 170.16 111.138162 
L 190.32 111.0405 
L 210.48 111.099767 
L 230.64 111.12729 
L 250.8 111.5 
" style="fill:none;stroke:#d62728;stroke-width:1.5;"/>
   </g>
   <g id="LineCollection_33">
    <path clip-path="url(#p8f6828ac1c)" d="M 49.2 110.409543 
L 69.36 110.634427 
L 89.52 110.803143 
L 109.68 110.799366 
L 129.84 110.669311 
L 150 110.864818 
L 170.16 110.956045 
L 190.32 110.934414 
L 210.48 111.097643 
L 230.64 111.097338 
L 250.8 111.5 
" style="fill:none;stroke:#1f77b4;stroke-width:1.5;"/>
   </g>
   <g id="LineCollection_34">
    <path clip-path="url(#p8f6828ac1c)" d="M 49.2 110.047486 
L 69.36 110.579671 
L 89.52 110.783467 
L 109.68 110.669426 
L 129.84 110.669311 
L 150 110.751145 
L 170.16 110.825543 
L 190.32 110.880319 
L 210.48 111.097643 
L 230.64 111.090976 
L 250.8 111.5 
" style="fill:none;stroke:#e377c2;stroke-width:1.5;"/>
   </g>
   <g id="LineCollection_35">
    <path clip-path="url(#p8f6828ac1c)" d="M 49.2 110.047486 
L 69.36 110.579671 
L 89.52 110.754411 
L 109.68 110.669426 
L 129.84 110.549098 
L 150 110.751145 
L 170.16 110.825543 
L 190.32 110.880319 
L 210.48 111.086249 
L 230.64 111.034765 
L 250.8 111.5 
" style="fill:none;stroke:#8c564b;stroke-width:1.5;"/>
   </g>
   <g id="LineCollection_36">
    <path clip-path="url(#p8f6828ac1c)" d="M 49.2 110.047486 
L 69.36 110.571317 
L 89.52 110.681593 
L 109.68 110.667983 
L 129.84 110.533142 
L 150 110.736648 
L 170.16 110.812791 
L 190.32 110.816117 
L 210.48 111.030131 
L 230.64 111.034765 
L 250.8 111.5 
" style="fill:none;stroke:#bcbd22;stroke-width:1.5;"/>
   </g>
   <g id="LineCollection_37">
    <path clip-path="url(#p8f6828ac1c)" d="M 49.2 110.047486 
L 69.36 110.196723 
L 89.52 110.573989 
L 109.68 110.598358 
L 129.84 110.501878 
L 150 110.571203 
L 170.16 110.751334 
L 190.32 110.787727 
L 210.48 110.963256 
L 230.64 110.891686 
L 250.8 111.5 
" style="fill:none;stroke:#30a2da;stroke-width:1.5;"/>
   </g>
   <g id="LineCollection_38">
    <path clip-path="url(#p8f6828ac1c)" d="M 49.2 89.475638 
L 69.36 89.968161 
L 89.52 90.545922 
L 109.68 91.425862 
L 129.84 92.834744 
L 150 94.66526 
L 170.16 96.557935 
L 190.32 98.151791 
L 210.48 99.03033 
L 230.64 99.668344 
L 250.8 99.862369 
" style="fill:none;stroke:#fc4f30;stroke-width:1.5;"/>
   </g>
   <g id="LineCollection_39">
    <path clip-path="url(#p8f6828ac1c)" d="M 49.2 77.830521 
L 69.36 77.846289 
L 89.52 77.840883 
L 109.68 77.889671 
L 129.84 77.862577 
L 150 77.915107 
L 170.16 77.894008 
L 190.32 77.995025 
L 210.48 78.163863 
L 230.64 77.850188 
L 250.8 78.038959 
" style="fill:none;stroke:#e5ae38;stroke-width:1.5;"/>
   </g>
   <g id="LineCollection_40">
    <path clip-path="url(#p8f6828ac1c)" d="M 49.2 66.185404 
L 69.36 65.985703 
L 89.52 65.354473 
L 109.68 64.371294 
L 129.84 62.888455 
L 150 60.995781 
L 170.16 57.628833 
L 190.32 54.261885 
L 210.48 50.894937 
L 230.64 47.527989 
L 250.8 44.161041 
" style="fill:none;stroke:#6d904f;stroke-width:1.5;"/>
   </g>
   <g id="LineCollection_41">
    <path clip-path="url(#p8f6828ac1c)" d="M 49.2 44.369479 
L 69.36 41.002531 
L 89.52 37.635583 
L 109.68 34.268636 
L 129.84 30.901688 
L 150 27.53474 
L 170.16 24.167792 
L 190.32 20.800844 
L 210.48 17.433896 
L 230.64 14.066948 
L 250.8 10.7 
" style="fill:none;stroke:#8b8b8b;stroke-width:1.5;"/>
   </g>
  </g>
 </g>
 <defs>
  <clipPath id="p8f6828ac1c">
   <rect height="201.6" width="201.6" x="49.2" y="10.7"/>
  </clipPath>
 </defs>
</svg>
